<svg width="41" height="40" viewBox="0 0 41 40" fill="none" xmlns="http://www.w3.org/2000/svg">
<path d="M40.111 16.083H38.5V16H20.5V24H31.803C30.154 28.657 25.723 32 20.5 32C13.873 32 8.5 26.627 8.5 20C8.5 13.373 13.873 8 20.5 8C23.559 8 26.342 9.154 28.461 11.039L34.118 5.382C30.546 2.053 25.768 0 20.5 0C9.455 0 0.5 8.955 0.5 20C0.5 31.045 9.455 40 20.5 40C31.545 40 40.5 31.045 40.5 20C40.5 18.659 40.362 17.35 40.111 16.083Z" fill="#FFC107"/>
<path d="M2.806 10.691L9.377 15.51C11.155 11.108 15.461 8 20.5 8C23.559 8 26.342 9.154 28.461 11.039L34.118 5.382C30.546 2.053 25.768 0 20.5 0C12.818 0 6.156 4.337 2.806 10.691Z" fill="#FF3D00"/>
<path d="M20.5 40C25.666 40 30.36 38.023 33.909 34.808L27.719 29.57C25.6436 31.1484 23.1075 32.0021 20.5 32C15.298 32 10.881 28.683 9.21701 24.054L2.69501 29.079C6.00501 35.556 12.727 40 20.5 40Z" fill="#4CAF50"/>
<path d="M40.111 16.083H38.5V16H20.5V24H31.803C31.0142 26.2164 29.5934 28.1532 27.716 29.571L27.719 29.569L33.909 34.807C33.471 35.205 40.5 30 40.5 20C40.5 18.659 40.362 17.35 40.111 16.083Z" fill="#1976D2"/>
</svg>
