<svg width="37" height="32" viewBox="0 0 37 32" fill="none" xmlns="http://www.w3.org/2000/svg">
<path d="M3.0667 12.793C3.0667 11.7703 3.58769 10.8181 4.44897 10.2666L18.4 1.3335L32.3511 10.2666C33.2124 10.8181 33.7334 11.7703 33.7334 12.793V28.1668C33.7334 29.5475 32.6141 30.6668 31.2334 30.6668H24C23.4477 30.6668 23 30.2191 23 29.6668V21.1668C23 20.8907 22.7762 20.6668 22.5 20.6668H14.3C14.0239 20.6668 13.8 20.8907 13.8 21.1668V29.6668C13.8 30.2191 13.3523 30.6668 12.8 30.6668H5.5667C4.18598 30.6668 3.0667 29.5475 3.0667 28.1668V12.793Z" stroke="#47A5DE" stroke-width="2" stroke-linecap="round" stroke-linejoin="round"/>
</svg>
