<svg width="32" height="32" viewBox="0 0 32 32" fill="none" xmlns="http://www.w3.org/2000/svg">
<rect x="3.66667" y="13" width="24.6667" height="16.6667" rx="2" fill="#FFDD75" stroke="#9A8032" stroke-width="2"/>
<mask id="path-2-inside-1_159:758" fill="white">
<path d="M9.33333 13.3335V8.00016C9.33333 6.23205 10.0357 4.53636 11.286 3.28612C12.5362 2.03588 14.2319 1.3335 16 1.3335C17.7681 1.3335 19.4638 2.03588 20.714 3.28612C21.9643 4.53636 22.6667 6.23205 22.6667 8.00016V13.3335"/>
</mask>
<path d="M7.33333 13.3335C7.33333 14.4381 8.22876 15.3335 9.33333 15.3335C10.4379 15.3335 11.3333 14.4381 11.3333 13.3335H7.33333ZM9.33333 8.00016H7.33333H9.33333ZM16 1.3335V-0.666504V1.3335ZM20.6667 13.3335C20.6667 14.4381 21.5621 15.3335 22.6667 15.3335C23.7712 15.3335 24.6667 14.4381 24.6667 13.3335H20.6667ZM11.3333 13.3335V8.00016H7.33333V13.3335H11.3333ZM11.3333 8.00016C11.3333 6.76249 11.825 5.5755 12.7002 4.70033L9.87174 1.8719C8.24643 3.49722 7.33333 5.70162 7.33333 8.00016H11.3333ZM12.7002 4.70033C13.5753 3.82516 14.7623 3.3335 16 3.3335L16 -0.666504C13.7015 -0.666504 11.4971 0.246589 9.87174 1.8719L12.7002 4.70033ZM16 3.3335C17.2377 3.3335 18.4247 3.82516 19.2998 4.70033L22.1283 1.8719C20.5029 0.246589 18.2985 -0.666504 16 -0.666504V3.3335ZM19.2998 4.70033C20.175 5.5755 20.6667 6.76249 20.6667 8.00016H24.6667C24.6667 5.70162 23.7536 3.49722 22.1283 1.8719L19.2998 4.70033ZM20.6667 8.00016V13.3335H24.6667V8.00016H20.6667Z" fill="#9A8032" mask="url(#path-2-inside-1_159:758)"/>
</svg>
