<svg width="32" height="20" viewBox="0 0 32 20" fill="none" xmlns="http://www.w3.org/2000/svg">
<path d="M15.125 18.0408L15.364 18.2338C13.7438 19.3147 11.8387 19.8894 9.891 19.8848C4.427 19.8848 0 15.4638 0 9.99979C0 4.54079 4.427 0.114793 9.885 0.114793C11.912 0.114793 13.797 0.718793 15.36 1.75979C15.283 1.82375 15.2096 1.89185 15.14 1.96379C12.803 3.98379 11.459 6.91679 11.459 9.99979C11.459 13.0828 12.798 16.0158 15.126 18.0408H15.125ZM22.115 0.114793C20.1674 0.108801 18.2618 0.681337 16.64 1.75979C16.719 1.82779 16.797 1.89579 16.86 1.96379C18.0144 2.96058 18.9406 4.19422 19.5758 5.58085C20.211 6.96748 20.5402 8.47461 20.541 9.99979C20.541 13.0788 19.202 16.0108 16.874 18.0408C16.7948 18.1057 16.7151 18.17 16.635 18.2338C18.2549 19.3154 20.1602 19.8901 22.108 19.8848C27.572 19.8848 31.999 15.4638 31.999 9.99979C31.999 4.54079 27.572 0.114793 22.114 0.114793H22.115ZM16 2.23479C14.8224 3.15775 13.8704 4.33669 13.2162 5.68224C12.562 7.02779 12.2227 8.50462 12.224 10.0008C12.2221 11.4978 12.5611 12.9755 13.2153 14.322C13.8696 15.6684 14.8219 16.8482 16 17.7718C16.131 17.6728 16.251 17.5688 16.375 17.4598C18.459 15.6468 19.776 12.9798 19.776 10.0008C19.7772 8.50465 19.4378 7.02786 18.7836 5.68234C18.1294 4.33682 17.1775 3.15785 16 2.23479Z" fill="black"/>
</svg>
