<svg width="120" height="97" viewBox="0 0 120 97" fill="none" xmlns="http://www.w3.org/2000/svg">
<path d="M74.4915 31.1525C74.6378 31.6928 74.8891 32.1989 75.2312 32.642C75.5732 33.0851 75.9993 33.4565 76.4849 33.7348C76.9706 34.0131 77.5063 34.193 78.0616 34.2641C78.6168 34.3352 79.1806 34.2962 79.7207 34.1492L94.0403 30.2674C94.5802 30.1217 95.0861 29.871 95.5291 29.5297C95.972 29.1883 96.3434 28.763 96.6219 28.2781C96.9004 27.7931 97.0805 27.258 97.1521 26.7034C97.2237 26.1488 97.1852 25.5855 97.0389 25.0457L94.4403 15.4364C94.1444 14.3449 93.427 13.4157 92.4461 12.853C91.4651 12.2903 90.3008 12.1403 89.2092 12.4359L74.8896 16.3177C73.7995 16.615 72.8716 17.3324 72.3095 18.3126C71.7474 19.2928 71.5969 20.4559 71.891 21.547L74.4915 31.1525Z" fill="#186594"/>
<path d="M45.6768 31.4148C45.3791 32.5037 44.662 33.4301 43.6825 33.9911C42.703 34.5521 41.5411 34.702 40.4513 34.4078L26.1336 30.526C25.5934 30.3807 25.087 30.1303 24.6437 29.7891C24.2003 29.448 23.8285 29.0227 23.5496 28.5377C23.2708 28.0527 23.0903 27.5175 23.0185 26.9627C22.9467 26.4078 22.985 25.8443 23.1312 25.3043L25.7317 15.6969C26.028 14.6058 26.7456 13.6771 27.7266 13.1151C28.7076 12.5531 29.8717 12.4039 30.9628 12.7001L45.2786 16.582C45.8188 16.7279 46.3251 16.9788 46.7684 17.3204C47.2117 17.662 47.5833 18.0876 47.8621 18.5728C48.1409 19.058 48.3214 19.5935 48.3933 20.1485C48.4652 20.7035 48.427 21.2672 48.281 21.8074L45.6768 31.4148Z" fill="#186594"/>
<path d="M57.0559 20.2675C58.0957 23.0831 59.3752 26.8158 60.0753 30.7146C60.8188 34.9192 59.2506 37.2328 56.301 39.8182C55.4367 40.5674 55.1423 41.6751 55.5235 42.7149C55.9255 43.7774 56.9653 44.5209 58.0561 44.5209C58.6845 44.5209 59.2865 44.2869 59.7979 43.8378C62.3134 41.6468 64.193 39.6011 65.1856 36.7252C66.367 33.3264 65.4027 29.3597 64.6893 26.4629C63.893 23.2322 62.7343 20.0712 61.6058 17.0084L61.2925 16.1686C59.6129 11.6055 59.2129 8.16907 62.087 4.09098C62.6701 3.25121 62.755 2.27556 62.3115 1.40937C61.4472 -0.253198 58.8185 -0.543817 57.6824 1.07157C56.0406 3.39652 54.3724 6.31968 54.4384 10.3317C54.4988 13.4512 55.599 16.3705 56.6633 19.1975L57.0653 20.2637" fill="#47A5DE"/>
<path d="M57.6242 42.8129C57.2374 41.7787 57.5355 40.6691 58.3961 39.918C61.3513 37.3364 62.9214 35.019 62.1703 30.8183C61.4777 26.9195 60.1945 23.1943 59.1566 20.3711L58.7546 19.3011C57.6978 16.4761 56.592 13.5567 56.5353 10.4372C56.4636 6.41765 58.1319 3.50015 59.7774 1.17709C60.0379 0.797775 60.3851 0.531689 60.7644 0.352412C59.6359 -0.142017 58.179 0.0750036 57.4072 1.17709C55.7635 3.49826 54.1028 6.41765 54.1632 10.4372C54.2274 13.5567 55.3181 16.4761 56.3881 19.3011L56.7826 20.3711C57.8299 23.1867 59.1113 26.9195 59.8057 30.8183C60.5493 35.019 58.9811 37.3364 56.0315 39.918C55.1634 40.6691 54.869 41.7787 55.2596 42.8129C55.6522 43.8791 56.692 44.6245 57.7809 44.6245C58.1885 44.6245 58.5867 44.5094 58.9622 44.315C58.3445 43.9981 57.8669 43.4626 57.6223 42.8129" fill="#186594"/>
<path d="M10.8855 31.2259C26.7072 5.22123 50.553 23.3113 50.553 23.3113C52.0985 24.4775 54.95 25.44 56.8805 25.4475L63.2741 25.4513C65.2122 25.4513 68.0656 24.4926 69.6073 23.3188C69.6073 23.3188 93.4513 5.23255 109.275 31.2297C125.11 57.2249 118.729 85.5338 118.729 85.5338C117.607 92.4671 113.927 97.0925 106.976 96.5056C100.047 95.9262 85.0082 77.8456 85.0082 77.8456C83.7703 76.3529 81.1679 75.1338 79.2261 75.1338L40.9437 75.1244C39.0132 75.1244 36.4127 76.3435 35.171 77.8286C35.171 77.8286 20.1211 95.9262 13.1915 96.5037C6.24312 97.0849 2.55755 92.4501 1.4498 85.5244C1.4498 85.5281 -4.93814 57.2193 10.8855 31.2259Z" fill="#47A5DE"/>
<path d="M19.3699 85.4225C19.3699 85.4225 12.9819 57.1155 28.8036 31.1221C32.7628 24.6191 37.2221 20.8712 41.6871 18.9105C33.3044 15.9873 20.4757 15.2325 10.7079 31.2806C-5.10814 57.2834 1.27225 85.5848 1.27225 85.5848C2.38377 92.5181 6.07501 97.1453 13.014 96.5584C15.2559 96.3792 18.3451 94.3524 21.5004 91.7123C20.4587 89.9761 19.7567 87.8437 19.3717 85.4225" fill="#186594"/>
<path d="M74.8044 25.3342H81.1942C83.1266 25.3418 85.9781 24.3793 87.5217 23.2112C87.5217 23.2112 90.8261 20.707 95.7893 18.8991C82.5605 13.4208 69.4298 23.3754 69.4298 23.3754C69.3185 23.4565 69.2052 23.5396 69.0845 23.6169C70.6942 24.5926 73.1003 25.3323 74.8025 25.3323" fill="#186594"/>
<path d="M102.919 77.7418C101.686 76.249 99.0841 75.0281 97.146 75.0281L58.8637 75.0243C58.4108 75.0321 57.9602 75.0896 57.52 75.196H79.0522C80.9865 75.196 83.5945 76.4151 84.8287 77.9078C84.8287 77.9078 99.871 95.996 106.801 96.5753C111.426 96.9622 114.6 95.0392 116.538 91.6631C109.899 86.1282 102.919 77.7418 102.919 77.7418Z" fill="#186594"/>
<path d="M44.4425 44.4132C44.3979 43.8407 44.3797 43.2664 44.3878 42.6922C44.3847 42.5985 44.4076 42.5058 44.4538 42.4242C44.2436 42.0131 43.9789 41.6323 43.6669 41.2919C43.6 41.2256 43.5513 41.1432 43.5252 41.0527C43.4991 40.9623 43.4965 40.8666 43.5178 40.7749H35.5767V32.7866H26.9978V40.7749H20.1079V49.4859H26.9978V55.9493H35.5767V49.4859H43.9745C44.0235 47.9025 44.4085 46.3192 44.5991 44.7416C44.508 44.6554 44.4522 44.5383 44.4425 44.4132Z" fill="#A2ABAF"/>
<path d="M35.6144 32.5715C35.6144 31.3392 34.618 30.339 33.3895 30.339H29.2359C28.0074 30.339 27.0034 31.3392 27.0034 32.5715C27.0034 33.8 28.0055 34.8002 29.2359 34.8002H33.3895C33.6819 34.7999 33.9714 34.7421 34.2415 34.6299C34.5116 34.5178 34.7569 34.3536 34.9635 34.1466C35.1701 33.9397 35.3339 33.694 35.4456 33.4238C35.5573 33.1535 35.6146 32.8639 35.6144 32.5715Z" fill="#A2ABAF"/>
<path d="M20.1079 49.3594V40.7823H26.9318V34.6208H35.6428V40.7823H43.6348V49.3594H35.6428V55.9568H26.9318V49.3594H20.1079Z" fill="#A2ABAF"/>
<path d="M43.8518 49.3783C45.0822 49.3783 46.0805 48.38 46.0805 47.1477V42.9979C46.0568 42.4226 45.8116 41.8789 45.3962 41.4802C44.9809 41.0816 44.4275 40.859 43.8518 40.859C43.276 40.859 42.7226 41.0816 42.3073 41.4802C41.8919 41.8789 41.6467 42.4226 41.6231 42.9979V47.1477C41.6226 47.4406 41.6798 47.7307 41.7917 48.0014C41.9035 48.2722 42.0676 48.5182 42.2746 48.7254C42.4816 48.9326 42.7275 49.0969 42.9981 49.2089C43.2688 49.321 43.5588 49.3785 43.8518 49.3783Z" fill="#A2ABAF"/>
<path d="M18.1283 45.8493C18.1868 46.4249 18.1868 46.9929 18.1868 47.5685C18.1896 47.6612 18.1661 47.7528 18.1189 47.8327C18.3227 48.2309 18.5812 48.6121 18.9002 48.9688C19.0492 49.1311 19.0964 49.3179 19.053 49.4821H26.9922V57.4722H35.5767V49.4821H42.4629V40.773H35.5767V34.3152H26.9922V40.773H18.5944C18.551 42.3581 18.1642 43.9396 17.9755 45.5153C18.0647 45.6048 18.119 45.7233 18.1283 45.8493Z" fill="#A2ABAF"/>
<path d="M26.9581 57.6873C26.9581 58.9196 27.9621 59.9216 29.2 59.9216H33.3442C34.5746 59.9216 35.5767 58.9196 35.5767 57.6873C35.5767 56.4625 34.5746 55.4567 33.3442 55.4567H29.2C27.9621 55.4567 26.9581 56.4625 26.9581 57.6873Z" fill="#A2ABAF"/>
<path d="M42.4628 40.9032V49.4802H35.6389V55.6454H26.9241V49.4802H18.9359V40.9032H26.9241V34.3152H35.6389V40.9032H42.4628Z" fill="#A2ABAF"/>
<path d="M18.7208 40.8767C18.4282 40.8767 18.1385 40.9344 17.8682 41.0464C17.5979 41.1584 17.3524 41.3226 17.1456 41.5296C16.9388 41.7366 16.7748 41.9823 16.663 42.2527C16.5512 42.5231 16.4938 42.8128 16.494 43.1054V47.2533C16.494 47.8444 16.7288 48.4113 17.1468 48.8293C17.5648 49.2472 18.1316 49.482 18.7227 49.482C19.3138 49.482 19.8807 49.2472 20.2987 48.8293C20.7166 48.4113 20.9514 47.8444 20.9514 47.2533V43.1054C20.9517 42.8125 20.8941 42.5224 20.7821 42.2518C20.6701 41.9812 20.5057 41.7353 20.2985 41.5283C20.0913 41.3212 19.8453 41.1571 19.5746 41.0453C19.3039 40.9335 19.0137 40.8762 18.7208 40.8767Z" fill="#A2ABAF"/>
<path d="M43.3891 43.6415C43.3396 43.0699 43.3176 42.4961 43.3231 41.9224C43.3231 41.8186 43.3533 41.7318 43.3891 41.6582C43.1809 41.2468 42.9174 40.8658 42.606 40.5259C42.5416 40.4583 42.4944 40.3762 42.4684 40.2865C42.4425 40.1968 42.4385 40.1022 42.4569 40.0107H34.5253V32.0225H25.9464V40.0107H19.047V48.7255H25.9464V55.1795H34.5253V48.7255H42.9154C42.9645 47.1346 43.3533 45.5513 43.5401 43.9756C43.4502 43.8867 43.3964 43.7677 43.3891 43.6415Z" fill="#CBD5DC"/>
<path d="M34.5442 31.8073C34.5442 30.5788 33.544 29.5786 32.3155 29.5786H28.1638C27.8713 29.5789 27.5818 29.6367 27.3118 29.7488C27.0417 29.861 26.7963 30.0252 26.5897 30.2322C26.3831 30.4391 26.2193 30.6847 26.1076 30.955C25.996 31.2253 25.9386 31.5149 25.9388 31.8073C25.9383 32.0999 25.9955 32.3897 26.1071 32.6602C26.2187 32.9307 26.3824 33.1765 26.5891 33.3837C26.7957 33.5908 27.0411 33.7552 27.3113 33.8675C27.5815 33.9798 27.8712 34.0377 28.1638 34.0379H32.3155C33.544 34.0379 34.5442 33.0396 34.5442 31.8073Z" fill="#CBD5DC"/>
<path d="M19.0394 48.5971V40.0164H25.869V33.8586H34.5781V40.0164H42.5701V48.5971H34.5781V55.1851H25.869V48.5971H19.0394Z" fill="#CBD5DC"/>
<path d="M42.7814 48.6254C44.0232 48.6254 45.0177 47.6233 45.0177 46.391V42.2431C45.0179 41.9497 44.9602 41.6592 44.8478 41.3882C44.7354 41.1172 44.5706 40.8711 44.3628 40.664C44.155 40.4569 43.9083 40.2929 43.6369 40.1814C43.3656 40.0699 43.0748 40.0132 42.7814 40.0144C41.5567 40.0144 40.5527 41.0089 40.5527 42.2431V46.391C40.5527 47.6233 41.5567 48.6254 42.7814 48.6254Z" fill="#CBD5DC"/>
<path d="M17.0675 45.0871C17.1165 45.6589 17.1203 46.2363 17.1203 46.8044C17.1194 46.8978 17.1001 46.9901 17.0637 47.0761C17.2618 47.4743 17.5166 47.8498 17.8355 48.2065C17.9865 48.3688 18.0299 48.5556 17.9884 48.7236H25.9276V56.708H34.5065V48.7236H41.3964V40.0126H34.5065V33.551H25.9276V40.0126H17.5393C17.4921 41.5978 17.0958 43.1811 16.9165 44.7549C17.0025 44.8457 17.0556 44.9626 17.0675 45.0871Z" fill="#CBD5DC"/>
<path d="M25.903 56.927C25.9015 57.2205 25.958 57.5114 26.0694 57.783C26.1808 58.0546 26.3447 58.3015 26.5519 58.5096C26.759 58.7176 27.0052 58.8826 27.2763 58.9951C27.5474 59.1076 27.8381 59.1654 28.1317 59.1651H32.2796C32.8597 59.1482 33.4104 58.9059 33.8148 58.4896C34.2191 58.0733 34.4453 57.5158 34.4453 56.9355C34.4453 56.3551 34.2191 55.7976 33.8148 55.3813C33.4104 54.965 32.8597 54.7227 32.2796 54.7058H28.1317C26.8975 54.7058 25.903 55.7003 25.903 56.927Z" fill="#CBD5DC"/>
<path d="M41.3888 40.1314V48.7122H34.5706V54.8699H25.8558V48.7122H17.8713V40.1314H25.8558V33.5397H34.5706V40.1314H41.3888Z" fill="#CBD5DC"/>
<path d="M17.6562 40.1125C16.4277 40.1125 15.4219 41.1108 15.4219 42.3488V46.4929C15.4388 47.0735 15.6813 47.6247 16.0979 48.0294C16.5146 48.4341 17.0726 48.6605 17.6534 48.6605C18.2343 48.6605 18.7922 48.4341 19.2089 48.0294C19.6255 47.6247 19.8681 47.0735 19.8849 46.4929V42.3488C19.8849 41.1127 18.8885 40.1125 17.6562 40.1125Z" fill="#CBD5DC"/>
<path d="M102.607 34.2623C102.607 35.6329 102.063 36.9474 101.094 37.9166C100.124 38.8857 98.81 39.4302 97.4394 39.4302C96.0688 39.4302 94.7543 38.8857 93.7851 37.9166C92.816 36.9474 92.2715 35.6329 92.2715 34.2623C92.2725 32.8912 92.8176 31.5766 93.7871 30.6071C94.7565 29.6376 96.0712 29.0926 97.4422 29.0916C98.121 29.0916 98.7931 29.2253 99.4201 29.4853C100.047 29.7452 100.617 30.1261 101.096 30.6064C101.576 31.0866 101.957 31.6567 102.216 32.284C102.475 32.9113 102.608 33.5835 102.607 34.2623Z" fill="#FFC000"/>
<path d="M83.3587 43.4356C86.2154 43.4356 88.5313 41.1197 88.5313 38.263C88.5313 35.4062 86.2154 33.0903 83.3587 33.0903C80.5019 33.0903 78.186 35.4062 78.186 38.263C78.186 41.1197 80.5019 43.4356 83.3587 43.4356Z" fill="#FFC000"/>
<path d="M107.778 47.9025C107.776 49.2749 107.23 50.5904 106.258 51.5599C105.287 52.5294 103.97 53.0737 102.598 53.0732C101.244 53.0474 99.9543 52.4913 99.0058 51.5246C98.0574 50.5579 97.5261 49.2577 97.5261 47.9034C97.5261 46.5492 98.0574 45.249 99.0058 44.2823C99.9543 43.3156 101.244 42.7595 102.598 42.7336C103.278 42.7329 103.951 42.866 104.579 43.1254C105.207 43.3847 105.778 43.7652 106.259 44.2452C106.74 44.7252 107.121 45.2952 107.382 45.9227C107.643 46.5502 107.778 47.223 107.778 47.9025Z" fill="#FFC000"/>
<path d="M93.6927 51.8956C93.6563 53.2423 93.0958 54.5216 92.1304 55.4613C91.165 56.4009 89.871 56.9267 88.5238 56.9267C87.1767 56.9267 85.8827 56.4009 84.9173 55.4613C83.9519 54.5216 83.3914 53.2423 83.355 51.8956C83.3542 51.2161 83.4874 50.5431 83.7467 49.915C84.0061 49.2869 84.3866 48.7161 84.8666 48.235C85.3465 47.754 85.9166 47.3722 86.5441 47.1115C87.1716 46.8508 87.8443 46.7162 88.5238 46.7155C89.2034 46.7162 89.8761 46.8508 90.5036 47.1115C91.1311 47.3722 91.7011 47.754 92.1811 48.235C92.6611 48.7161 93.0416 49.2869 93.301 49.915C93.5603 50.5431 93.6934 51.2161 93.6927 51.8956Z" fill="#FFC000"/>
</svg>
