<svg width="120" height="78" viewBox="0 0 120 78" fill="none" xmlns="http://www.w3.org/2000/svg">
<path d="M60.2898 71.1059C60.2898 74.5068 57.0702 77.2618 53.0953 77.2618H7.20199C3.22522 77.2618 0 74.5068 0 71.1059V15.654C0 12.2532 3.22522 9.50378 7.20199 9.50378H53.0953C57.0702 9.50378 60.2898 12.255 60.2898 15.654V71.1059Z" fill="#47A5DE"/>
<path d="M60.2898 66.7706C60.2898 70.1733 57.0702 72.9283 53.0953 72.9283H7.20199C3.22522 72.9283 0 70.1733 0 66.7706V11.3224C0 7.92532 3.22522 5.17029 7.20199 5.17029H53.0953C57.0702 5.17029 60.2898 7.92532 60.2898 11.3224V66.7706Z" fill="#186594"/>
<path d="M59.7122 71.1059C59.7122 74.5068 62.9355 77.2618 66.9104 77.2618H112.808C116.775 77.2618 120 74.5068 120 71.1059V15.654C120 12.2532 116.775 9.50378 112.808 9.50378H66.9142C62.9393 9.50378 59.714 12.255 59.714 15.654V71.1059" fill="#47A5DE"/>
<path d="M59.7122 66.7706C59.7122 70.1733 62.9355 72.9283 66.9104 72.9283H112.808C116.775 72.9283 120 70.1733 120 66.7706V11.3224C120 7.92532 116.775 5.17029 112.808 5.17029H66.9142C62.9393 5.17029 59.714 7.92532 59.714 11.3224V66.7706" fill="#186594"/>
<path d="M60.9169 65.9433C60.9169 69.3441 57.8805 72.0992 54.1303 72.0992H10.8995C7.15688 72.0992 4.12427 69.3441 4.12427 65.9433V10.4932C4.12427 7.0886 7.15688 4.33923 10.8995 4.33923H54.1322C57.8824 4.33923 60.9188 7.09049 60.9188 10.4932V65.9433" fill="#D0D1D2"/>
<path d="M60.9169 61.604C60.9169 65.0087 57.8805 67.7599 54.1303 67.7599H10.8995C7.15688 67.7599 4.12427 65.0087 4.12427 61.604V6.1521C4.12427 2.75504 7.15688 0 10.8995 0H54.1322C57.8824 0 60.9188 2.75504 60.9188 6.1521V61.604" fill="#E7E6E6"/>
<path d="M12.663 14.9045H51.1259C53.7109 14.9045 53.7109 11.2676 51.1259 11.2676H12.663C10.0798 11.2676 10.0798 14.9045 12.663 14.9045Z" fill="#35494D"/>
<path d="M12.6627 22.2821H51.1256C53.7107 22.2821 53.7107 18.649 51.1256 18.649H12.6627C10.0795 18.649 10.0795 22.2821 12.6627 22.2821Z" fill="#35494D"/>
<path d="M12.6627 29.8297H51.1256C53.7107 29.8297 53.7107 26.1929 51.1256 26.1929H12.6627C10.0795 26.1929 10.0795 29.8297 12.6627 29.8297Z" fill="#35494D"/>
<path d="M12.6627 37.2128H51.1256C53.7107 37.2128 53.7107 33.5759 51.1256 33.5759H12.6627C10.0795 33.5759 10.0795 37.2128 12.6627 37.2128Z" fill="#35494D"/>
<path d="M12.6627 44.8493H51.1256C53.7107 44.8493 53.7107 41.2124 51.1256 41.2124H12.6627C10.0795 41.2124 10.0795 44.8493 12.6627 44.8493Z" fill="#35494D"/>
<path d="M12.6627 53.4768H51.1256C53.7107 53.4768 53.7107 49.84 51.1256 49.84H12.6627C10.0795 49.84 10.0795 53.4768 12.6627 53.4768Z" fill="#35494D"/>
<path d="M117.698 67.1104C117.698 70.5112 114.663 73.2644 110.915 73.2644H67.6841C63.9472 73.2644 60.907 70.5112 60.907 67.1104V11.6566C60.907 8.2595 63.9472 5.50635 67.6841 5.50635H110.915C114.661 5.50635 117.698 8.2595 117.698 11.6566V67.1104Z" fill="#D0D1D2"/>
<path d="M117.698 62.7672C117.698 66.1642 114.663 68.9193 110.915 68.9193H67.6841C63.9472 68.9193 60.907 66.1642 60.907 62.7672V7.30769C60.907 3.91251 63.9472 1.16125 67.6841 1.16125H110.915C114.661 1.16125 117.698 3.91251 117.698 7.30769V62.7672Z" fill="#E7E6E6"/>
<path d="M69.4498 16.0677H107.913C110.498 16.0677 110.498 12.4308 107.913 12.4308H69.4498C66.8647 12.4308 66.8647 16.0677 69.4498 16.0677Z" fill="#35494D"/>
<path d="M69.4498 23.4528H107.913C110.498 23.4528 110.498 19.8197 107.913 19.8197H69.4498C66.8647 19.8197 66.8647 23.4528 69.4498 23.4528Z" fill="#35494D"/>
<path d="M69.4498 30.9986H107.913C110.498 30.9986 110.498 27.3617 107.913 27.3617H69.4498C66.8647 27.3617 66.8647 30.9986 69.4498 30.9986Z" fill="#35494D"/>
<path d="M69.4498 38.3893H107.913C110.498 38.3893 110.498 34.7487 107.913 34.7487H69.4498C66.8647 34.7487 66.8647 38.3893 69.4498 38.3893Z" fill="#35494D"/>
<path d="M69.4498 46.0182H107.913C110.498 46.0182 110.498 42.3794 107.913 42.3794H69.4498C66.8647 42.3794 66.8647 46.0182 69.4498 46.0182Z" fill="#35494D"/>
<path d="M83.2932 54.6402H108.583C110.283 54.6402 110.283 51.0015 108.583 51.0015H83.2932C81.5956 51.0015 81.5956 54.6402 83.2932 54.6402Z" fill="#35494D"/>
</svg>
