<svg width="209" height="152" viewBox="0 0 209 152" fill="none" xmlns="http://www.w3.org/2000/svg">
<path d="M170.25 37.8333L132.417 75.6667H160.792C160.792 106.974 135.349 132.417 104.042 132.417C94.8004 132.448 85.6975 130.172 77.5583 125.796L63.7492 139.605C75.7905 147.269 89.7685 151.337 104.042 151.333C145.847 151.333 179.708 117.472 179.708 75.6667H208.083L170.25 37.8333ZM47.2917 75.6667C47.2917 44.3596 72.7346 18.9167 104.042 18.9167C113.595 18.9167 122.675 21.2812 130.525 25.5375L144.334 11.7283C132.293 4.06474 118.315 -0.00396886 104.042 2.90507e-06C62.2358 2.90507e-06 28.375 33.8608 28.375 75.6667H0L37.8333 113.5L75.6667 75.6667H47.2917Z" fill="black"/>
</svg>
