<svg width="64" height="64" viewBox="0 0 64 64" fill="none" xmlns="http://www.w3.org/2000/svg">
<path d="M63.916 57.025C63.9167 57.9301 63.739 58.8265 63.3931 59.663C63.0472 60.4994 62.5398 61.2595 61.9001 61.8998C61.2603 62.5402 60.5007 63.0481 59.6645 63.3948C58.8284 63.7414 57.9321 63.9199 57.027 63.92H6.887C5.98203 63.9196 5.08599 63.7409 4.25008 63.3942C3.41417 63.0474 2.65475 62.5394 2.01521 61.8991C1.37566 61.2589 0.868523 60.4988 0.522749 59.6625C0.176976 58.8262 -0.000655002 57.93 1.81486e-06 57.025V6.891C-0.000263525 5.064 0.725116 3.3117 2.01662 2.01945C3.30813 0.727193 5.06001 0.000795479 6.887 0H57.027C57.9318 -3.81322e-08 58.8278 0.178255 59.6638 0.524585C60.4997 0.870915 61.2592 1.37853 61.899 2.01845C62.5387 2.65836 63.0461 3.41804 63.3922 4.25408C63.7383 5.09012 63.9163 5.98616 63.916 6.891V57.025Z" fill="#47A5DE"/>
<path d="M22.4521 11.817C19.6031 12.011 17.2261 13.256 16.1831 14.96V48.96C17.2291 50.668 19.6151 51.915 22.4681 52.104L50.0321 32.034L22.4521 11.814" fill="white"/>
</svg>
