<svg width="100" height="100" viewBox="0 0 100 100" fill="none" xmlns="http://www.w3.org/2000/svg">
<circle cx="50" cy="50" r="50" fill="#EDFFF8"/>
<mask id="mask0_28:1091" style="mask-type:alpha" maskUnits="userSpaceOnUse" x="0" y="0" width="100" height="100">
<circle cx="50" cy="50" r="50" fill="#8FB6E9"/>
</mask>
<g mask="url(#mask0_28:1091)">
<path d="M26.4706 52.8711C26.4706 52.8711 25.0028 39.3676 25.0028 33.3008C25.0028 27.234 34.788 14.8521 49.842 14.8521C64.8961 14.8521 74.6812 26.5867 74.6812 33.8653C74.6812 41.144 73.2135 52.8711 73.2135 52.8711H26.4706Z" fill="#87304B"/>
<path d="M49.8043 76.3403C41.6826 76.3403 30.9867 82.362 25.3188 89.618C24.9748 90.0471 24.7918 90.5831 24.8014 91.1329C24.811 91.6828 25.0127 92.212 25.3715 92.6288C33.576 102.188 66.7702 102.143 74.3424 92.6288C74.6672 92.2142 74.8436 91.7028 74.8436 91.1761C74.8436 90.6495 74.6672 90.138 74.3424 89.7234C68.6595 82.3845 57.9184 76.3403 49.8043 76.3403Z" fill="#F6A821"/>
<path d="M39.2288 98.8162L37.5201 79.8857L32.2061 83.2804L33.3803 97.3786L39.2288 98.8162Z" fill="#993434"/>
<path d="M60.3799 98.8162L62.081 79.8857L67.3951 83.2804L66.2209 97.3786L60.3799 98.8162Z" fill="#993434"/>
<path d="M77.0837 56.7408C80.0203 53.8042 80.6684 49.6913 78.5314 47.5543C76.3944 45.4173 72.2815 46.0654 69.3449 49.002C66.4084 51.9385 65.7602 56.0515 67.8972 58.1885C70.0342 60.3255 74.1472 59.6773 77.0837 56.7408Z" fill="#E57E5A"/>
<path d="M31.7875 58.1894C33.9245 56.0523 33.2764 51.9394 30.3398 49.0029C27.4033 46.0663 23.2903 45.4182 21.1533 47.5552C19.0163 49.6922 19.6645 53.8051 22.601 56.7417C25.5376 59.6782 29.6505 60.3264 31.7875 58.1894Z" fill="#E57E5A"/>
<path d="M29.5717 52.7207C28.1867 51.298 26.2221 49.7776 24.1898 49.7776C23.9363 49.7776 23.6931 49.8783 23.5139 50.0576C23.3346 50.2368 23.2339 50.48 23.2339 50.7335C23.2339 50.987 23.3346 51.2302 23.5139 51.4095C23.6931 51.5887 23.9363 51.6895 24.1898 51.6895C26.2899 51.6895 28.8415 54.6175 29.82 55.9723C30.1855 56.4877 30.588 56.9757 31.0244 57.4326C30.7489 56.2568 30.5901 55.0567 30.5502 53.8497C30.2469 53.4541 29.9202 53.077 29.5717 52.7207Z" fill="#CC6436"/>
<path d="M69.0059 53.8421C68.966 55.0491 68.8072 56.2492 68.5317 57.425C68.9733 56.9687 69.3808 56.4806 69.7511 55.9648C70.7296 54.6099 73.2813 51.6819 75.3813 51.6819C75.6349 51.6819 75.878 51.5812 76.0573 51.4019C76.2366 51.2226 76.3373 50.9795 76.3373 50.726C76.3373 50.4724 76.2366 50.2293 76.0573 50.05C75.878 49.8707 75.6349 49.77 75.3813 49.77C73.3415 49.77 71.3845 51.2754 69.9995 52.7131C69.6458 53.069 69.314 53.4461 69.0059 53.8421Z" fill="#CC6436"/>
<path d="M57.4218 77.8231C56.4885 77.5897 55.5401 77.1607 54.5766 77.0102V64.5529C54.5276 63.3191 54.003 62.1521 53.1127 61.2964C52.2224 60.4408 51.0355 59.9629 49.8007 59.9629C48.5659 59.9629 47.379 60.4408 46.4887 61.2964C45.5984 62.1521 45.0738 63.3191 45.0248 64.5529V77.0102C44.114 77.1532 43.2183 77.5672 42.3376 77.7629C42.3376 78.0564 45.6797 82.9791 49.8647 82.9791C54.0497 82.9791 57.4519 78.1016 57.4218 77.8231Z" fill="#E57E5A"/>
<path d="M49.8419 71.0864C69.9692 71.0864 69.081 53.6463 69.081 50.7634V38.404C69.081 33.2905 67.0497 28.3865 63.4339 24.7707C59.8181 21.1549 54.9141 19.1235 49.8005 19.1235C44.687 19.1235 39.783 21.1549 36.1672 24.7707C32.5514 28.3865 30.52 33.2905 30.52 38.404V50.914C30.52 54.4065 29.7147 71.0864 49.8419 71.0864Z" fill="#FF9566"/>
<path d="M32.7332 29.4394C37.8741 26.9254 59.0778 30.2749 66.4091 30.2749C81.6965 30.2749 81.4632 11.1111 68.8178 11.1111C63.7445 11.1111 61.8854 13.6251 61.8854 13.6251C59.2509 11.9391 52.168 11.1713 48.7055 13.6251C42.571 11.6154 32.7332 17.0424 32.7332 29.4394Z" fill="#87304B"/>
<path d="M41.6825 49.4011C43.1416 49.4011 44.3245 48.225 44.3245 46.7742C44.3245 45.3233 43.1416 44.1472 41.6825 44.1472C40.2234 44.1472 39.0405 45.3233 39.0405 46.7742C39.0405 48.225 40.2234 49.4011 41.6825 49.4011Z" fill="#6B1818"/>
<path d="M57.9261 49.3711C59.3686 49.3711 60.538 48.2085 60.538 46.7743C60.538 45.3401 59.3686 44.1775 57.9261 44.1775C56.4836 44.1775 55.3142 45.3401 55.3142 46.7743C55.3142 48.2085 56.4836 49.3711 57.9261 49.3711Z" fill="#6B1818"/>
<path d="M45.0622 40.1203C45.2579 40.2627 45.5003 40.3256 45.7406 40.2963C45.9809 40.267 46.2011 40.1477 46.3568 39.9624C46.5125 39.7771 46.5921 39.5396 46.5795 39.2979C46.567 39.0562 46.4632 38.8282 46.2892 38.66C44.031 36.7707 38.8374 37.3729 37.0008 39.202C36.9 39.2874 36.818 39.3928 36.76 39.5116C36.7021 39.6303 36.6693 39.7598 36.6639 39.8918C36.6585 40.0239 36.6805 40.1556 36.7285 40.2787C36.7766 40.4018 36.8496 40.5136 36.9431 40.607C37.0365 40.7005 37.1483 40.7735 37.2714 40.8216C37.3945 40.8696 37.5262 40.8916 37.6583 40.8862C37.7903 40.8808 37.9198 40.848 38.0385 40.79C38.1572 40.7321 38.2627 40.6501 38.3481 40.5493C39.8385 39.0665 43.9407 39.1718 45.0622 40.1203Z" fill="#6B1818"/>
<path d="M54.5389 40.1203C56.1121 38.803 60.1315 39.4353 61.2455 40.5493C61.4285 40.7045 61.6632 40.7852 61.903 40.7753C62.1427 40.7655 62.37 40.6658 62.5397 40.4962C62.7094 40.3265 62.809 40.0992 62.8189 39.8594C62.8287 39.6197 62.748 39.385 62.5928 39.202C60.8917 37.5009 55.7658 36.6051 53.3045 38.66C53.2081 38.7406 53.1285 38.8393 53.0703 38.9507C53.0121 39.062 52.9764 39.1836 52.9652 39.3088C52.954 39.4339 52.9676 39.56 53.0052 39.6798C53.0427 39.7997 53.1035 39.911 53.1841 40.0074C53.2646 40.1037 53.3634 40.1833 53.4747 40.2415C53.586 40.2997 53.7077 40.3354 53.8328 40.3466C53.9579 40.3578 54.084 40.3442 54.2038 40.3067C54.3237 40.2691 54.435 40.2084 54.5314 40.1278L54.5389 40.1203Z" fill="#6B1818"/>
<path d="M56.9249 57.7863C56.7458 57.6084 56.5037 57.5085 56.2512 57.5085C55.9988 57.5085 55.7567 57.6084 55.5776 57.7863C54.003 59.2609 51.9585 60.1325 49.8043 60.2476C46.5451 60.2476 43.9332 57.7938 43.9031 57.7712C43.719 57.6038 43.4768 57.5148 43.2281 57.5232C42.9793 57.5315 42.7437 57.6365 42.5711 57.8159C42.3986 57.9953 42.3029 58.2349 42.3042 58.4838C42.3056 58.7326 42.4039 58.9712 42.5784 59.1487C42.7063 59.2691 45.7548 62.1595 49.7968 62.1595C52.4554 62.046 54.9838 60.9769 56.9174 59.1487C57.0082 59.0602 57.0806 58.9546 57.1302 58.8379C57.1798 58.7212 57.2057 58.5958 57.2064 58.469C57.2071 58.3422 57.1826 58.2166 57.1343 58.0994C57.0859 57.9821 57.0148 57.8757 56.9249 57.7863Z" fill="#6B1818"/>
</g>
</svg>
