<svg width="100" height="100" viewBox="0 0 100 100" fill="none" xmlns="http://www.w3.org/2000/svg">
<circle cx="50" cy="50" r="50" fill="#E0E3E4"/>
<mask id="mask0_28:1025" style="mask-type:alpha" maskUnits="userSpaceOnUse" x="0" y="0" width="100" height="100">
<circle cx="50" cy="50" r="50" fill="#8FB6E9"/>
</mask>
<g mask="url(#mask0_28:1025)">
<path d="M51.5917 76.1313C43.2276 76.1313 32.2124 82.3327 26.3753 89.8054C26.021 90.2473 25.8325 90.7992 25.8424 91.3655C25.8523 91.9318 26.06 92.4768 26.4296 92.9061C34.879 102.751 69.064 102.704 76.8623 92.9061C77.1967 92.4791 77.3784 91.9524 77.3784 91.41C77.3784 90.8676 77.1967 90.3409 76.8623 89.9139C71.033 82.356 59.948 76.1313 51.5917 76.1313Z" fill="#C7B299"/>
<path d="M56.5061 76.8213V63.9922C56.4557 62.7215 55.9154 61.5197 54.9985 60.6385C54.0817 59.7573 52.8593 59.2651 51.5877 59.2651C50.316 59.2651 49.0937 59.7573 48.1768 60.6385C47.2599 61.5197 46.7196 62.7215 46.6692 63.9922V76.8213C45.7312 76.9686 51.6535 81.263 51.6535 81.263C51.6535 81.263 57.4983 76.9763 56.5061 76.8213Z" fill="#AA5C41"/>
<path d="M51.6536 81.2629L57.9557 85.2783C57.9557 85.2783 58.8937 79.666 59.5061 77.6118C60.1184 75.5576 57.6844 74.6894 56.4674 76.7746C55.2504 78.8599 51.6536 81.2629 51.6536 81.2629Z" fill="#845730"/>
<path d="M51.6537 81.2629L45.3515 85.2783C45.3515 85.2783 44.4136 79.666 43.8012 77.6118C43.1888 75.5576 45.6228 74.6894 46.8398 76.7746C48.0569 78.8599 51.6537 81.2629 51.6537 81.2629Z" fill="#845730"/>
<path d="M30.5379 51.8065C30.5379 51.8065 27.5845 37.9309 27.5845 31.6521C27.5845 25.3732 36.1501 12.6836 51.6536 12.6836C67.157 12.6836 75.7226 24.7685 75.7226 32.2644C75.7226 39.7603 72.7692 51.8065 72.7692 51.8065H30.5379Z" fill="#663434"/>
<path d="M65.1959 95.5957V98.8204C63.2493 99.2743 61.2766 99.6083 59.2891 99.8204V95.5957H65.1959Z" fill="#845730"/>
<path d="M44.0415 95.5957V99.7584C42.0548 99.5401 40.0825 99.2062 38.1346 98.7584V95.6035L44.0415 95.5957Z" fill="#845730"/>
<path d="M79.7094 55.8231C82.7336 52.7989 83.4011 48.5632 81.2003 46.3624C78.9995 44.1616 74.7638 44.8291 71.7396 47.8533C68.7154 50.8775 68.0479 55.1132 70.2487 57.314C72.4495 59.5148 76.6852 58.8473 79.7094 55.8231Z" fill="#AA5C41"/>
<path d="M33.0612 57.3075C35.262 55.1067 34.5945 50.871 31.5702 47.8468C28.546 44.8226 24.3103 44.1551 22.1095 46.3559C19.9087 48.5567 20.5762 52.7924 23.6004 55.8166C26.6247 58.8408 30.8604 59.5083 33.0612 57.3075Z" fill="#AA5C41"/>
<path d="M30.7783 51.8066C29.352 50.3415 27.3288 48.7756 25.2358 48.7756C24.9747 48.7756 24.7243 48.8794 24.5397 49.064C24.3551 49.2486 24.2513 49.499 24.2513 49.7601C24.2513 50.0212 24.3551 50.2716 24.5397 50.4562C24.7243 50.6409 24.9747 50.7446 25.2358 50.7446C27.3985 50.7446 30.0264 53.76 31.0341 55.1553C31.4098 55.6914 31.8244 56.1992 32.2744 56.6746C31.9907 55.4637 31.8271 54.2278 31.786 52.9848C31.4742 52.5721 31.1377 52.1786 30.7783 51.8066Z" fill="#964C39"/>
<path d="M71.3895 52.9847C71.3484 54.2277 71.1848 55.4636 70.9011 56.6745C71.3559 56.2046 71.7756 55.7019 72.1569 55.1707C73.1646 53.7754 75.7925 50.76 77.9552 50.76C78.2163 50.76 78.4667 50.6562 78.6513 50.4716C78.8359 50.287 78.9397 50.0366 78.9397 49.7755C78.9397 49.5144 78.8359 49.264 78.6513 49.0794C78.4667 48.8947 78.2163 48.791 77.9552 48.791C75.8545 48.791 73.839 50.3414 72.4127 51.8219C72.0485 52.1885 71.7068 52.5768 71.3895 52.9847Z" fill="#964C39"/>
<path d="M51.6537 70.5965C72.3818 70.5965 71.4671 52.6358 71.4671 49.6669V36.9385C71.4671 31.6724 69.3751 26.6219 65.6514 22.8982C61.9277 19.1745 56.8772 17.0825 51.6111 17.0825C46.3449 17.0825 41.2945 19.1745 37.5707 22.8982C33.847 26.6219 31.755 31.6724 31.755 36.9385V49.8219C31.755 53.4187 30.9256 70.5965 51.6537 70.5965Z" fill="#C16B49"/>
<path d="M68.7616 26.8536C48.3203 22.2646 25.2047 32.055 25.2047 18.9701C25.2047 10.4432 34.1347 8.02466 37.3362 8.02466C40.5376 8.02466 75.6839 11.7145 68.7616 26.8536Z" fill="#663434"/>
<path d="M43.2508 48.2637C44.7534 48.2637 45.9716 47.0525 45.9716 45.5584C45.9716 44.0643 44.7534 42.853 43.2508 42.853C41.7481 42.853 40.5299 44.0643 40.5299 45.5584C40.5299 47.0525 41.7481 48.2637 43.2508 48.2637Z" fill="#6B1818"/>
<path d="M59.9789 48.233C61.4645 48.233 62.6688 47.0356 62.6688 45.5586C62.6688 44.0816 61.4645 42.8843 59.9789 42.8843C58.4933 42.8843 57.2891 44.0816 57.2891 45.5586C57.2891 47.0356 58.4933 48.233 59.9789 48.233Z" fill="#6B1818"/>
<path d="M39.1268 38.9463C38.9317 38.9469 38.7407 38.8895 38.5783 38.7814C38.4158 38.6732 38.2892 38.5193 38.2144 38.339C38.1396 38.1587 38.1201 37.9603 38.1584 37.7689C38.1966 37.5776 38.2909 37.4019 38.4292 37.2642C39.9252 35.7681 42.9484 35.8766 45.615 35.9774C46.2274 35.9774 46.8243 36.0239 47.3591 36.0239C47.6202 36.0239 47.8706 36.1276 48.0553 36.3123C48.2399 36.4969 48.3436 36.7473 48.3436 37.0084C48.3436 37.2695 48.2399 37.5199 48.0553 37.7045C47.8706 37.8891 47.6202 37.9929 47.3591 37.9929C46.7855 37.9929 46.1809 37.9928 45.5375 37.9463C43.4988 37.8688 40.7004 37.7681 39.8167 38.6595C39.6339 38.8428 39.3857 38.9459 39.1268 38.9463Z" fill="#6B1818"/>
<path d="M64.0562 38.9463C63.9268 38.9467 63.7985 38.9216 63.6788 38.8724C63.5591 38.8232 63.4503 38.7508 63.3586 38.6595C62.4749 37.7758 59.6765 37.8843 57.6378 37.9463C56.9944 37.9463 56.3898 37.9929 55.8161 37.9929C55.555 37.9929 55.3046 37.8891 55.12 37.7045C54.9354 37.5199 54.8317 37.2695 54.8317 37.0084C54.8317 36.7473 54.9354 36.4969 55.12 36.3123C55.3046 36.1276 55.555 36.0239 55.8161 36.0239C56.3588 36.0239 56.9479 36.0239 57.5603 35.9774C60.2269 35.8766 63.25 35.7681 64.7461 37.2642C64.8844 37.4019 64.9787 37.5776 65.0169 37.7689C65.0552 37.9603 65.0357 38.1587 64.9609 38.339C64.8861 38.5193 64.7595 38.6732 64.597 38.7814C64.4345 38.8895 64.2436 38.9469 64.0485 38.9463H64.0562Z" fill="#6B1818"/>
<path d="M51.6149 61.558C47.4134 61.558 45.336 59.341 45.2507 59.2325C45.0739 59.0402 44.9807 58.7856 44.9916 58.5247C45.0025 58.2638 45.1166 58.0178 45.3088 57.841C45.5011 57.6642 45.7556 57.571 46.0166 57.5819C46.2775 57.5928 46.5235 57.7069 46.7003 57.8992C46.77 58.0077 48.3359 59.558 51.6149 59.558C54.8938 59.558 55.9558 58.0077 55.9636 58.0077C56.1165 57.8094 56.3393 57.6768 56.5866 57.6371C56.8339 57.5973 57.087 57.6532 57.2945 57.7935C57.5019 57.9338 57.6481 58.1479 57.7033 58.3922C57.7585 58.6365 57.7185 58.8926 57.5914 59.1084C57.5217 59.2325 55.9016 61.558 51.6149 61.558Z" fill="#6B1818"/>
<path d="M73.1104 44.0546C73.0779 43.9294 73.021 43.8117 72.943 43.7085C72.8651 43.6052 72.7675 43.5183 72.6559 43.4528C72.5443 43.3873 72.4209 43.3444 72.2927 43.3266C72.1645 43.3089 72.0341 43.3165 71.9089 43.3492L68.2966 44.2949C67.7152 40.8454 64.6688 38.7524 60.0487 38.7524C55.4287 38.7524 52.6614 40.8764 52.2428 44.574H51.0102C50.5994 40.8764 47.7778 38.7757 43.2043 38.7757C38.6307 38.7757 35.5456 40.8687 34.9564 44.3104L31.4992 43.3647C31.2518 43.3101 30.9929 43.3529 30.7764 43.4842C30.5598 43.6156 30.4021 43.8254 30.3363 44.0699C30.2704 44.3145 30.3013 44.5751 30.4226 44.7975C30.5439 45.0198 30.7462 45.1869 30.9875 45.2639L34.9099 46.3181C35.282 50.0544 38.3982 52.3412 43.2353 52.3412C47.8398 52.3412 50.6304 50.2405 51.0412 46.5429H52.2738C52.6846 50.2405 55.4752 52.3412 60.0797 52.3412C64.9091 52.3412 68.0253 50.0544 68.4051 46.3259L72.4437 45.2716C72.693 45.1979 72.903 45.0286 73.0279 44.8005C73.1528 44.5725 73.1825 44.3044 73.1104 44.0546ZM43.2043 50.3723C41.2818 50.3723 36.8168 49.8994 36.8168 45.5584C36.8168 41.2175 41.2896 40.7369 43.2043 40.7369C47.0801 40.7369 49.1033 42.357 49.1033 45.5584C49.1033 48.7599 47.1189 50.3723 43.2043 50.3723ZM60.0487 50.3723C56.1729 50.3723 54.1497 48.7522 54.1497 45.5584C54.1497 42.3647 56.1341 40.7369 60.0487 40.7369C61.9712 40.7369 66.4439 41.2097 66.4439 45.5584C66.4439 49.9072 61.9712 50.3723 60.0487 50.3723Z" fill="#663434"/>
</g>
</svg>
