<svg width="100" height="100" viewBox="0 0 100 100" fill="none" xmlns="http://www.w3.org/2000/svg">
<circle cx="50" cy="50" r="50" fill="#F3EACF"/>
<mask id="mask0_28:1068" style="mask-type:alpha" maskUnits="userSpaceOnUse" x="0" y="0" width="100" height="100">
<circle cx="50" cy="50" r="50" fill="#8FB6E9"/>
</mask>
<g mask="url(#mask0_28:1068)">
<path d="M49.4116 74.0244C67.8074 74.0244 82.7201 59.1117 82.7201 40.7159C82.7201 22.3202 67.8074 7.40747 49.4116 7.40747C31.0159 7.40747 16.1031 22.3202 16.1031 40.7159C16.1031 59.1117 31.0159 74.0244 49.4116 74.0244Z" fill="#663434"/>
<path d="M49.6527 77.0417C41.2614 77.0417 30.2105 83.2633 24.3545 90.7602C23.999 91.2035 23.8099 91.7573 23.8198 92.3254C23.8298 92.8936 24.0382 93.4403 24.4089 93.871C32.8857 103.748 67.1818 103.701 75.0054 93.871C75.3409 93.4426 75.5232 92.9141 75.5232 92.37C75.5232 91.8259 75.3409 91.2974 75.0054 90.8691C69.1183 83.2788 58.0362 77.0417 49.6527 77.0417Z" fill="#AA5C41"/>
<path d="M70.3237 86.0553C67.4373 83.6436 64.2761 81.5814 60.9058 79.9115C60.9058 86.133 55.8742 91.8024 49.676 91.8024C43.4778 91.8024 38.4462 86.1019 38.4462 79.8882C35.0754 81.5605 31.9076 83.6141 29.005 86.0086C30.1129 88.4655 30.6627 91.1374 30.6148 93.8322C30.6161 95.1686 30.4885 96.502 30.2338 97.8139C40.6081 102.332 58.8916 102.356 69.1182 97.9228C68.851 96.5757 68.7181 95.2055 68.7216 93.8322C68.6772 91.1536 69.2242 88.4982 70.3237 86.0553Z" fill="#349996"/>
<path d="M77.8397 56.7831C80.8738 53.7491 81.5435 49.4996 79.3355 47.2917C77.1276 45.0837 72.8781 45.7534 69.8441 48.7874C66.81 51.8214 66.1404 56.0709 68.3483 58.2788C70.5563 60.4868 74.8057 59.8171 77.8397 56.7831Z" fill="#AA5C41"/>
<path d="M31.0345 58.2777C33.2424 56.0697 32.5728 51.8203 29.5387 48.7862C26.5047 45.7522 22.2552 45.0825 20.0473 47.2905C17.8393 49.4984 18.509 53.7479 21.543 56.7819C24.5771 59.816 28.8265 60.4856 31.0345 58.2777Z" fill="#AA5C41"/>
<path d="M57.5229 78.5659C56.5586 78.3248 55.5787 77.8815 54.5832 77.726V64.863C54.5326 63.5882 53.9906 62.3825 53.0707 61.4984C52.1509 60.6144 50.9246 60.1206 49.6488 60.1206C48.373 60.1206 47.1467 60.6144 46.2268 61.4984C45.307 62.3825 44.765 63.5882 44.7143 64.863V77.726C43.7733 77.8737 42.8479 78.3015 41.938 78.5037C41.938 78.807 41.8835 79.9424 41.8835 80.2535C41.8835 81.2839 42.0865 82.3043 42.4809 83.2564C42.8752 84.2084 43.4532 85.0734 44.1818 85.8021C44.9105 86.5307 45.7755 87.1087 46.7276 87.5031C47.6796 87.8974 48.7 88.1004 49.7304 88.1004C50.7609 88.1004 51.7813 87.8974 52.7333 87.5031C53.6853 87.1087 54.5504 86.5307 55.279 85.8021C56.0077 85.0734 56.5857 84.2084 56.98 83.2564C57.3744 82.3043 57.5773 81.2839 57.5773 80.2535C57.5773 79.9813 57.554 78.8536 57.5229 78.5659Z" fill="#AA5C41"/>
<path d="M57.5229 78.566C58.3006 84.2353 54.0622 88.1238 49.746 88.1238C45.4298 88.1238 41.1914 84.4842 41.9691 78.5271L38.4462 79.8881C38.4462 86.1096 43.47 91.8023 49.676 91.8023C55.882 91.8023 60.9058 86.0862 60.9058 79.8881L57.5229 78.566Z" fill="#F6A821"/>
<path d="M49.6915 71.6058C70.487 71.6058 69.5693 53.5868 69.5693 50.6082V37.8385C69.5693 30.5671 60.6492 24.9678 49.6526 24.9678C38.6561 24.9678 29.736 30.4116 29.736 37.8385V50.7637C29.736 54.3722 28.8961 71.6058 49.6915 71.6058Z" fill="#C16B49"/>
<path d="M41.2613 49.2005C42.7689 49.2005 43.991 47.9853 43.991 46.4864C43.991 44.9874 42.7689 43.7722 41.2613 43.7722C39.7537 43.7722 38.5316 44.9874 38.5316 46.4864C38.5316 47.9853 39.7537 49.2005 41.2613 49.2005Z" fill="#6B1818"/>
<path d="M58.0439 49.1695C59.5343 49.1695 60.7425 47.9683 60.7425 46.4865C60.7425 45.0047 59.5343 43.8035 58.0439 43.8035C56.5535 43.8035 55.3453 45.0047 55.3453 46.4865C55.3453 47.9683 56.5535 49.1695 58.0439 49.1695Z" fill="#6B1818"/>
<path d="M37.1318 41.338C37.2616 41.3384 37.3903 41.3132 37.5104 41.2638C37.6305 41.2144 37.7397 41.1418 37.8317 41.0502C39.0993 39.7826 42.8322 38.9038 45.3986 38.9038C45.6606 38.9038 45.9118 38.7997 46.097 38.6145C46.2822 38.4293 46.3863 38.1781 46.3863 37.9161C46.3863 37.6542 46.2822 37.403 46.097 37.2177C45.9118 37.0325 45.6606 36.9285 45.3986 36.9285C42.8089 36.9285 38.3216 37.7762 36.4396 39.6582C36.3009 39.7963 36.2063 39.9726 36.168 40.1646C36.1296 40.3565 36.1491 40.5556 36.2242 40.7365C36.2992 40.9173 36.4262 41.0718 36.5892 41.1803C36.7522 41.2888 36.9438 41.3464 37.1396 41.3457L37.1318 41.338Z" fill="#6B1818"/>
<path d="M53.9143 38.896C56.4729 38.896 60.2136 39.7747 61.4812 41.0424C61.6689 41.2167 61.9169 41.3113 62.173 41.3062C62.429 41.3011 62.6731 41.1968 62.8537 41.0151C63.0343 40.8335 63.1373 40.5889 63.1409 40.3328C63.1446 40.0767 63.0486 39.8292 62.8733 39.6425C60.9913 37.7605 56.504 36.9128 53.9143 36.9128C53.6524 36.9128 53.4011 37.0169 53.2159 37.2021C53.0307 37.3873 52.9266 37.6386 52.9266 37.9005C52.9266 38.1625 53.0307 38.4137 53.2159 38.5989C53.4011 38.7841 53.6524 38.8882 53.9143 38.8882V38.896Z" fill="#6B1818"/>
<path d="M41.9769 56.8917C41.7946 56.7344 41.5611 56.6491 41.3204 56.6519C41.0796 56.6546 40.8481 56.7453 40.6694 56.9067C40.4908 57.0682 40.3773 57.2893 40.3502 57.5286C40.3232 57.7679 40.3845 58.0088 40.5227 58.206C40.6471 58.346 43.6334 61.5423 49.7772 61.5423C55.9209 61.5423 58.3317 58.2371 58.4017 58.0894C58.5492 57.8728 58.6046 57.6065 58.5558 57.3491C58.5069 57.0917 58.3578 56.8642 58.1412 56.7168C57.9246 56.5693 57.6584 56.5139 57.4009 56.5627C57.1435 56.6116 56.9161 56.7607 56.7686 56.9773C56.6908 57.0862 54.8788 59.567 49.7694 59.567C44.66 59.567 42.0858 57.0162 41.9769 56.8917Z" fill="#6B1818"/>
<path d="M28.5463 51.5181C27.1153 50.0482 25.0855 48.4773 22.9858 48.4773C22.7525 48.5115 22.5392 48.628 22.3844 48.8058C22.2295 48.9836 22.1434 49.2109 22.1415 49.4466C22.1396 49.6824 22.2221 49.911 22.3741 50.0912C22.5261 50.2714 22.7375 50.3914 22.9702 50.4293C25.14 50.4293 27.7763 53.4545 28.7873 54.8544C29.1627 55.3766 29.576 55.8704 30.0239 56.332C29.8528 55.1492 29.7541 53.9571 29.7283 52.7624C29.3574 52.3263 28.9627 51.9109 28.5463 51.5181Z" fill="#964C39"/>
<path d="M69.5771 52.7624C69.5322 53.9815 69.4154 55.1968 69.2272 56.402C69.6834 55.9305 70.1045 55.4263 70.487 54.8933C71.498 53.4935 74.1344 50.4683 76.3041 50.4683C76.5661 50.4683 76.8173 50.3642 77.0025 50.179C77.1878 49.9937 77.2918 49.7425 77.2918 49.4806C77.2918 49.2186 77.1878 48.9674 77.0025 48.7822C76.8173 48.597 76.5661 48.4929 76.3041 48.4929C74.1966 48.4929 72.1746 50.0483 70.7437 51.5337C70.3315 51.9205 69.9421 52.3308 69.5771 52.7624Z" fill="#964C39"/>
</g>
</svg>
