<svg width="100" height="100" viewBox="0 0 100 100" fill="none" xmlns="http://www.w3.org/2000/svg">
<circle cx="50" cy="50" r="50" fill="#E0E3E4"/>
<mask id="mask0_28:1051" style="mask-type:alpha" maskUnits="userSpaceOnUse" x="0" y="0" width="100" height="100">
<circle cx="50" cy="50" r="50" fill="url(#paint0_linear_28:1051)"/>
</mask>
<g mask="url(#mask0_28:1051)">
<path d="M49.9248 76.7006C41.8211 76.7006 31.1488 82.7089 25.4935 89.9489C25.1502 90.3771 24.9676 90.9118 24.9772 91.4605C24.9868 92.0092 25.188 92.5372 25.5461 92.9531C33.7324 102.491 66.8533 102.446 74.4088 92.9531C74.7328 92.5394 74.9089 92.0291 74.9089 91.5036C74.9089 90.9781 74.7328 90.4678 74.4088 90.0541C68.7234 82.7314 58.0286 76.7006 49.9248 76.7006Z" fill="#993434"/>
<path d="M49.9999 71.4582C70.0828 71.4582 69.1965 54.0566 69.1965 51.1801C69.1965 47.7704 66.5979 25.0063 49.9624 25.0063C33.3268 25.0063 30.6907 47.838 30.6907 51.3228C30.6907 54.8076 29.8795 71.4582 49.9999 71.4582Z" fill="#FF9566"/>
<path d="M75.9259 46.9218C75.9259 25.7425 62.1669 14.8148 50 14.8148C37.8332 14.8148 24.0741 25.7425 24.0741 46.9218C24.0741 63.1368 29.2488 68.9273 29.2488 73.8466C29.2488 78.7659 25.6588 82.6638 25.6588 85.2249C25.6588 87.7859 29.8045 95.394 49.9249 95.394C70.0453 95.394 74.3413 87.7484 74.3413 85.2249C74.3413 82.7014 70.7513 78.8035 70.7513 73.8767C70.7513 68.9498 75.9259 63.1443 75.9259 46.9218ZM50 71.4583C29.9172 71.4583 30.7208 54.8153 30.7208 51.3229C30.7208 47.8306 33.2894 24.9839 49.9249 24.9839C66.5605 24.9839 69.1591 47.748 69.1591 51.1577C69.1591 54.0567 70.0528 71.4583 50 71.4583Z" fill="#C7B299"/>
<path d="M41.8212 49.8209C43.2771 49.8209 44.4574 48.6474 44.4574 47.1997C44.4574 45.7521 43.2771 44.5786 41.8212 44.5786C40.3653 44.5786 39.1851 45.7521 39.1851 47.1997C39.1851 48.6474 40.3653 49.8209 41.8212 49.8209Z" fill="#6B1818"/>
<path d="M58.0287 49.7908C59.468 49.7908 60.6348 48.6308 60.6348 47.1997C60.6348 45.7687 59.468 44.6086 58.0287 44.6086C56.5894 44.6086 55.4226 45.7687 55.4226 47.1997C55.4226 48.6308 56.5894 49.7908 58.0287 49.7908Z" fill="#6B1818"/>
<path d="M37.8331 42.2202C37.9585 42.2206 38.0828 42.1963 38.1988 42.1486C38.3148 42.1009 38.4202 42.0308 38.5091 41.9423C39.6356 40.8158 43.3608 40.8233 45.5764 40.8233H45.8092C45.9344 40.8233 46.0585 40.7986 46.1742 40.7507C46.2899 40.7028 46.3951 40.6325 46.4836 40.5439C46.5722 40.4554 46.6425 40.3502 46.6904 40.2345C46.7383 40.1188 46.763 39.9947 46.763 39.8695C46.763 39.7442 46.7383 39.6202 46.6904 39.5045C46.6425 39.3887 46.5722 39.2836 46.4836 39.195C46.3951 39.1064 46.2899 39.0362 46.1742 38.9883C46.0585 38.9403 45.9344 38.9156 45.8092 38.9156H45.5764C42.7374 38.9156 38.817 38.9157 37.1572 40.598C37.0232 40.7314 36.9319 40.9016 36.8948 41.087C36.8578 41.2724 36.8767 41.4647 36.9491 41.6393C37.0216 41.814 37.1443 41.9632 37.3017 42.0679C37.4591 42.1727 37.6441 42.2283 37.8331 42.2277V42.2202Z" fill="#6B1818"/>
<path d="M54.0406 40.8233H54.2734C56.5265 40.8233 60.2216 40.8233 61.3407 41.9424C61.5219 42.1107 61.7614 42.2021 62.0087 42.1971C62.256 42.1922 62.4917 42.0915 62.6661 41.9161C62.8405 41.7407 62.94 41.5044 62.9435 41.2571C62.9471 41.0098 62.8544 40.7708 62.685 40.5905C61.0027 38.9082 57.1048 38.9007 54.2659 38.9082H54.033C53.7801 38.9082 53.5375 39.0087 53.3586 39.1875C53.1797 39.3664 53.0792 39.609 53.0792 39.862C53.0792 40.115 53.1797 40.3576 53.3586 40.5365C53.5375 40.7153 53.7801 40.8158 54.033 40.8158L54.0406 40.8233Z" fill="#6B1818"/>
<path d="M45.1558 58.1874C44.9845 58.0011 44.7463 57.8905 44.4934 57.88C44.2406 57.8694 43.994 57.9597 43.8077 58.131C43.6215 58.3023 43.5109 58.5406 43.5003 58.7934C43.4898 59.0462 43.5801 59.2929 43.7514 59.4791C43.834 59.5693 45.8543 61.7323 49.9174 61.7323C53.9806 61.7323 55.6479 59.4791 55.708 59.3815C55.8469 59.1749 55.8987 58.9218 55.8524 58.6772C55.806 58.4326 55.665 58.2161 55.4601 58.0747C55.2538 57.9327 55.0003 57.8768 54.7534 57.9188C54.5066 57.9609 54.2859 58.0977 54.1383 58.3C54.0932 58.3601 52.9967 59.8021 49.9174 59.8021C46.8382 59.8021 45.2309 58.2925 45.1558 58.1874Z" fill="#6B1818"/>
<path d="M32.7786 64.6014C33.3696 65.5387 34.0595 66.4099 34.8365 67.2C38.2838 70.6698 43.3683 72.4573 49.9624 72.4573C56.4214 72.4573 61.4459 70.6923 64.8856 67.2C65.7044 66.3733 66.4298 65.459 67.0486 64.4737C69.1741 61.815 72.6889 53.8239 72.6889 40.3427C72.6889 40.0898 72.5885 39.8472 72.4096 39.6683C72.2307 39.4894 71.9881 39.3889 71.7351 39.3889C71.4822 39.3889 71.2395 39.4894 71.0607 39.6683C70.8818 39.8472 70.7813 40.0898 70.7813 40.3427C70.7615 43.5685 70.5105 46.7887 70.0303 49.9786C69.5721 43.1441 65.4339 24.0602 49.8873 24.0602C42.5497 24.0602 36.7667 28.3561 33.1617 36.4899C31.2067 41.0356 30.0434 45.882 29.7219 50.8198C29.1646 47.3425 28.8808 43.8268 28.8732 40.3052C28.8732 40.0522 28.7727 39.8096 28.5938 39.6307C28.415 39.4519 28.1724 39.3514 27.9194 39.3514C27.6664 39.3514 27.4238 39.4519 27.2449 39.6307C27.0661 39.8096 26.9656 40.0522 26.9656 40.3052C26.9656 53.9065 30.548 61.9126 32.6585 64.5037L32.7786 64.6014ZM31.637 51.7285V51.3305C31.8983 46.4733 33.0171 41.7007 34.9416 37.2334C38.2687 29.723 43.3082 25.9678 49.9624 25.9678C56.6167 25.9678 61.6186 29.723 64.9833 37.2334C66.9017 41.6602 68.0181 46.3928 68.2803 51.2103V51.5783C68.2803 53.9291 68.3705 61.079 63.6013 65.8856C60.462 68.9349 55.8957 70.5045 50 70.5045C43.9391 70.5045 39.3052 68.9349 36.2259 65.8406C31.577 61.1916 31.622 54.3121 31.637 51.7285Z" fill="#AA9179"/>
<path d="M63.4437 75.912C61.3549 77.2965 58.9994 78.2282 56.5288 78.6473C54.0582 79.0664 51.5272 78.9636 49.0988 78.3454C44.187 77.1813 39.846 74.1621 37.7656 70.4745C37.7095 70.3564 37.6298 70.2511 37.5313 70.1651C37.4328 70.0791 37.3178 70.0143 37.1932 69.9746C37.0686 69.935 36.9372 69.9213 36.8072 69.9346C36.6771 69.9479 36.5512 69.9877 36.4372 70.0517C36.3232 70.1156 36.2235 70.2024 36.1444 70.3065C36.0653 70.4106 36.0085 70.5298 35.9774 70.6568C35.9463 70.7837 35.9417 70.9158 35.9638 71.0446C35.9859 71.1735 36.0342 71.2964 36.1058 71.4058C38.4715 75.6116 43.1656 78.9162 48.6557 80.2005C50.2746 80.5871 51.9331 80.7837 53.5975 80.7863C57.4834 80.8064 61.2855 79.6576 64.5101 77.4892C64.6224 77.4231 64.7199 77.3347 64.7967 77.2295C64.8735 77.1243 64.928 77.0044 64.9567 76.8773C64.9854 76.7503 64.9877 76.6186 64.9636 76.4906C64.9395 76.3626 64.8894 76.2409 64.8164 76.1329C64.7434 76.025 64.6491 75.9332 64.5393 75.8631C64.4295 75.7931 64.3064 75.7462 64.1778 75.7255C64.0492 75.7048 63.9177 75.7107 63.7914 75.7428C63.6652 75.7748 63.5468 75.8325 63.4437 75.912Z" fill="#AA9179"/>
<path d="M57.3601 82.769C53.4998 86.5993 43.203 89.1228 36.2033 86.5242C35.9663 86.4356 35.7037 86.4447 35.4735 86.5496C35.2432 86.6546 35.064 86.8467 34.9754 87.0837C34.8867 87.3207 34.8959 87.5833 35.0008 87.8136C35.1057 88.0439 35.2979 88.223 35.5349 88.3117C37.8512 89.1332 40.2949 89.5375 42.7524 89.5058C49.0611 89.5058 55.5952 87.2152 58.697 84.1359C58.8663 83.9556 58.959 83.7166 58.9555 83.4693C58.9519 83.222 58.8525 82.9857 58.6781 82.8103C58.5037 82.6349 58.268 82.5341 58.0207 82.5292C57.7734 82.5243 57.5338 82.6157 57.3526 82.784L57.3601 82.769Z" fill="#AA9179"/>
</g>
<defs>
<linearGradient id="paint0_linear_28:1051" x1="0" y1="0" x2="120.548" y2="54.7878" gradientUnits="userSpaceOnUse">
<stop stop-color="#47A5DE"/>
<stop offset="1" stop-color="#186594"/>
</linearGradient>
</defs>
</svg>
