<svg width="100" height="100" viewBox="0 0 100 100" fill="none" xmlns="http://www.w3.org/2000/svg">
<circle cx="50" cy="50" r="50" fill="#FFDFE0"/>
<mask id="mask0_28:1131" style="mask-type:alpha" maskUnits="userSpaceOnUse" x="0" y="0" width="100" height="100">
<circle cx="50" cy="50" r="50" fill="#8FB6E9"/>
</mask>
<g mask="url(#mask0_28:1131)">
<path d="M49.8024 75.922C41.5267 75.922 30.628 82.0578 24.8527 89.4514C24.5022 89.8887 24.3156 90.4347 24.3254 90.9951C24.3352 91.5554 24.5408 92.0946 24.9064 92.5193C33.2664 102.26 67.09 102.214 74.8057 92.5193C75.1366 92.0968 75.3164 91.5757 75.3164 91.0391C75.3164 90.5024 75.1366 89.9813 74.8057 89.5588C69.0151 82.0808 58.0704 75.922 49.8024 75.922Z" fill="#FF9566"/>
<path d="M65.9012 90.4025C65.89 87.7115 66.4113 85.0449 67.4351 82.5563C61.9052 78.5987 55.2939 75.9143 49.7947 75.9143C44.2955 75.9143 37.7532 78.5834 32.2003 82.5333C33.2275 85.029 33.7489 87.7037 33.7343 90.4025C33.7463 92.7101 33.3757 95.0038 32.6375 97.1902C42.3857 100.611 57.3647 100.634 67.0209 97.2899C66.2634 95.0733 65.8848 92.7449 65.9012 90.4025Z" fill="#CA69CC"/>
<path d="M49.879 22.8321C55.1611 22.8321 59.4432 18.55 59.4432 13.2679C59.4432 7.98576 55.1611 3.70374 49.879 3.70374C44.5968 3.70374 40.3148 7.98576 40.3148 13.2679C40.3148 18.55 44.5968 22.8321 49.879 22.8321Z" fill="#CC9636"/>
<path d="M29.1324 52.0077C29.1324 52.0077 26.0645 38.2482 26.0645 32.0664C26.0645 25.8845 34.5012 13.2678 49.8407 13.2678C65.1801 13.2678 73.6552 25.2249 73.6552 32.6416C73.6552 40.0582 70.3342 52.0077 70.3342 52.0077H29.1324Z" fill="#F6A821"/>
<path d="M77.6002 55.9519C80.5924 52.9596 81.2528 48.7687 79.0753 46.5912C76.8978 44.4137 72.7069 45.0741 69.7147 48.0663C66.7224 51.0586 66.062 55.2495 68.2395 57.427C70.417 59.6045 74.608 58.9441 77.6002 55.9519Z" fill="#FF9566"/>
<path d="M31.4452 57.4204C33.6227 55.2429 32.9623 51.052 29.97 48.0597C26.9778 45.0675 22.7869 44.4071 20.6094 46.5846C18.4319 48.7621 19.0923 52.953 22.0845 55.9452C25.0768 58.9375 29.2677 59.5979 31.4452 57.4204Z" fill="#FF9566"/>
<path d="M29.1862 52.0768C27.775 50.6272 25.7732 49.0779 23.7023 49.0779C23.444 49.0779 23.1962 49.1805 23.0136 49.3632C22.8309 49.5458 22.7283 49.7936 22.7283 50.0519C22.7283 50.3103 22.8309 50.558 23.0136 50.7407C23.1962 50.9234 23.444 51.026 23.7023 51.026C25.8422 51.026 28.4422 54.0095 29.4393 55.3901C29.8117 55.9152 30.2218 56.4125 30.6665 56.878C30.3858 55.6799 30.2239 54.4571 30.1833 53.2272C29.8743 52.8241 29.5413 52.4399 29.1862 52.0768Z" fill="#CC6436"/>
<path d="M69.3678 53.2195C69.3272 54.4494 69.1653 55.6722 68.8846 56.8703C69.3346 56.4053 69.7498 55.908 70.1271 55.3824C71.1242 54.0018 73.7242 51.0183 75.8641 51.0183C76.1224 51.0183 76.3702 50.9157 76.5529 50.733C76.7355 50.5503 76.8382 50.3026 76.8382 50.0442C76.8382 49.7859 76.7355 49.5382 76.5529 49.3555C76.3702 49.1728 76.1224 49.0702 75.8641 49.0702C73.7856 49.0702 71.7915 50.6041 70.3802 52.0691C70.0199 52.4318 69.6818 52.8159 69.3678 53.2195Z" fill="#CC6436"/>
<path d="M61.8208 79.197C59.5287 78.0927 57.1314 77.2216 54.665 76.5969V63.9112C54.615 62.654 54.0805 61.4648 53.1733 60.5929C52.2661 59.7211 51.0567 59.2341 49.7985 59.2341C48.5403 59.2341 47.3309 59.7211 46.4237 60.5929C45.5165 61.4648 44.982 62.654 44.932 63.9112V76.6046C42.4637 77.2437 40.0604 78.1116 37.7532 79.197C37.7532 79.4961 40.1231 86.8667 49.879 86.8667C59.6349 86.8667 61.8592 79.4808 61.8208 79.197Z" fill="#FF9566"/>
<path d="M49.8407 70.5686C70.3496 70.5686 69.4445 52.7978 69.4445 49.8603V37.2666C69.4445 19.166 55.3859 23.5914 49.8023 23.5914C44.2188 23.5914 30.1525 19.166 30.1525 37.2666V50.0137C30.1525 53.5724 29.3318 70.5686 49.8407 70.5686Z" fill="#F7A379"/>
<path d="M41.5268 48.472C43.0136 48.472 44.2189 47.2736 44.2189 45.7953C44.2189 44.3169 43.0136 43.1185 41.5268 43.1185C40.04 43.1185 38.8347 44.3169 38.8347 45.7953C38.8347 47.2736 40.04 48.472 41.5268 48.472Z" fill="#6B1818"/>
<path d="M58.078 48.4413C59.5479 48.4413 60.7394 47.2566 60.7394 45.7952C60.7394 44.3339 59.5479 43.1492 58.078 43.1492C56.6082 43.1492 55.4166 44.3339 55.4166 45.7952C55.4166 47.2566 56.6082 48.4413 58.078 48.4413Z" fill="#6B1818"/>
<path d="M45.2389 38.463C45.4769 38.5647 45.7455 38.5677 45.9857 38.4713C46.2259 38.375 46.418 38.1871 46.5197 37.9491C46.6214 37.7111 46.6244 37.4425 46.5281 37.2023C46.4317 36.9621 46.2438 36.77 46.0058 36.6683C43.3291 35.5485 38.5969 36.2771 36.8022 38.0795C36.6607 38.2644 36.5901 38.4938 36.6032 38.7262C36.6163 38.9586 36.7122 39.1787 36.8735 39.3465C37.0349 39.5143 37.2509 39.6188 37.4827 39.641C37.7144 39.6633 37.9464 39.6018 38.1367 39.4677C39.2872 38.3019 43.1527 37.5963 45.2389 38.463Z" fill="#6B1818"/>
<path d="M54.3889 38.4552C56.5365 37.5272 60.2563 38.2405 61.4604 39.4523C61.5475 39.555 61.6549 39.6385 61.7759 39.6976C61.8969 39.7567 62.0289 39.7901 62.1634 39.7956C62.2979 39.8011 62.4321 39.7787 62.5576 39.7297C62.683 39.6808 62.7969 39.6063 62.8921 39.5111C62.9873 39.4159 63.0618 39.302 63.1107 39.1766C63.1597 39.0511 63.1821 38.9169 63.1766 38.7824C63.1711 38.6478 63.1377 38.5159 63.0786 38.3949C63.0195 38.2739 62.936 38.1665 62.8333 38.0794C61.1306 36.3767 56.6362 35.3643 53.6296 36.6759C53.5047 36.7209 53.3903 36.791 53.2935 36.8819C53.1967 36.9727 53.1195 37.0824 53.0666 37.2042C53.0137 37.326 52.9862 37.4573 52.986 37.5901C52.9857 37.7229 53.0126 37.8543 53.0649 37.9763C53.1173 38.0984 53.194 38.2084 53.2905 38.2996C53.3869 38.3909 53.501 38.4615 53.6257 38.5071C53.7504 38.5526 53.8832 38.5722 54.0157 38.5646C54.1483 38.557 54.2779 38.5224 54.3966 38.4629L54.3889 38.4552Z" fill="#6B1818"/>
<path d="M53.921 57.5224C53.9886 57.4084 54.0323 57.2819 54.0493 57.1504C54.0663 57.019 54.0563 56.8855 54.02 56.7581C53.9836 56.6307 53.9217 56.512 53.8379 56.4094C53.7541 56.3067 53.6502 56.2223 53.5327 56.1611C53.4151 56.1 53.2863 56.0635 53.1542 56.0539C53.022 56.0442 52.8893 56.0616 52.7641 56.1051C52.6389 56.1485 52.5239 56.217 52.4261 56.3064C52.3283 56.3958 52.2498 56.5042 52.1953 56.625C51.9157 57.0703 51.5277 57.4373 51.0676 57.6917C50.6075 57.9461 50.0903 58.0796 49.5646 58.0796C49.0388 58.0796 48.5217 57.9461 48.0616 57.6917C47.6014 57.4373 47.2134 57.0703 46.9339 56.625C46.7931 56.4448 46.5933 56.3199 46.3697 56.2721C46.146 56.2244 45.9127 56.2569 45.7106 56.3639C45.5085 56.4709 45.3504 56.6456 45.2642 56.8574C45.1779 57.0692 45.169 57.3046 45.2389 57.5224C45.6837 58.283 46.3198 58.9138 47.0841 59.3523C47.8484 59.7907 48.7142 60.0214 49.5953 60.0214C50.4764 60.0214 51.3421 59.7907 52.1064 59.3523C52.8707 58.9138 53.5069 58.283 53.9517 57.5224H53.921Z" fill="#6B1818"/>
</g>
</svg>
