<svg width="100" height="100" viewBox="0 0 100 100" fill="none" xmlns="http://www.w3.org/2000/svg">
<circle cx="50" cy="50" r="50" fill="#FFDD75"/>
<mask id="mask0_28:1028" style="mask-type:alpha" maskUnits="userSpaceOnUse" x="0" y="0" width="100" height="100">
<circle cx="50" cy="50" r="50" fill="#8FB6E9"/>
</mask>
<g mask="url(#mask0_28:1028)">
<path d="M70.6774 21.2524C63.9877 14.5784 59.1145 11.1111 49.9921 11.1111C40.8697 11.1111 35.9965 14.5784 29.3067 21.2524C22.617 27.9263 14.1975 43.2646 14.1975 51.9763C14.1975 60.8617 20.5634 65.7586 26.5266 67.8279C35.1909 70.8372 35.7753 74.4624 49.9921 74.4624C64.2088 74.4624 64.817 70.8451 73.4734 67.8358C79.4444 65.7586 85.8024 60.8696 85.8024 51.9842C85.7866 43.2646 77.3672 27.9421 70.6774 21.2524Z" fill="#592D2D"/>
<path d="M49.9921 75.6313C41.47 75.6313 30.2467 81.9499 24.2993 89.5637C23.9383 90.014 23.7463 90.5764 23.7564 91.1534C23.7665 91.7304 23.9781 92.2857 24.3546 92.723C32.9636 102.754 67.7946 102.706 75.7402 92.723C76.081 92.288 76.2661 91.7513 76.2661 91.1987C76.2661 90.6461 76.081 90.1094 75.7402 89.6743C69.7376 81.9736 58.4906 75.6313 49.9921 75.6313Z" fill="#C7B299"/>
<path d="M78.6012 55.0558C81.6825 51.9744 82.3626 47.6587 80.1202 45.4163C77.8779 43.1739 73.5621 43.854 70.4808 46.9354C67.3994 50.0167 66.7193 54.3325 68.9617 56.5748C71.2041 58.8172 75.5198 58.1371 78.6012 55.0558Z" fill="#AA5C41"/>
<path d="M31.058 56.5815C33.3004 54.3391 32.6202 50.0234 29.5389 46.942C26.4575 43.8607 22.1418 43.1806 19.8994 45.423C17.657 47.6653 18.3372 51.9811 21.4185 55.0624C24.4999 58.1438 28.8156 58.8239 31.058 56.5815Z" fill="#AA5C41"/>
<path d="M28.7223 51.2654C27.269 49.7727 25.2076 48.1772 23.0751 48.1772C22.8091 48.1772 22.5539 48.2829 22.3658 48.471C22.1777 48.6592 22.072 48.9143 22.072 49.1803C22.072 49.4463 22.1777 49.7015 22.3658 49.8896C22.5539 50.0777 22.8091 50.1834 23.0751 50.1834C25.2787 50.1834 27.9562 53.2558 28.9829 54.6775C29.3667 55.2155 29.7891 55.7249 30.2466 56.2018C29.9576 54.968 29.7909 53.7088 29.7491 52.4423C29.4306 52.0298 29.0878 51.6368 28.7223 51.2654Z" fill="#C16B49"/>
<path d="M70.1009 52.4424C70.059 53.7088 69.8923 54.9681 69.6033 56.2019C70.0666 55.7231 70.4942 55.2109 70.8828 54.6696C71.9095 53.248 74.587 50.1756 76.7906 50.1756C77.0566 50.1756 77.3118 50.0699 77.4999 49.8818C77.688 49.6937 77.7937 49.4385 77.7937 49.1725C77.7937 48.9065 77.688 48.6513 77.4999 48.4632C77.3118 48.2751 77.0566 48.1694 76.7906 48.1694C74.6502 48.1694 72.5967 49.7491 71.1434 51.2576C70.7723 51.6311 70.4241 52.0268 70.1009 52.4424Z" fill="#C16B49"/>
<path d="M67.4312 81.9971C63.877 79.8014 59.533 77.3372 54.9837 76.3262V63.2627C54.9323 61.968 54.3818 60.7434 53.4476 59.8456C52.5134 58.9477 51.268 58.4463 49.9723 58.4463C48.6766 58.4463 47.4312 58.9477 46.497 59.8456C45.5628 60.7434 45.0123 61.968 44.9609 63.2627V76.3341C41.4627 77.2305 38.1056 78.6073 34.9855 80.4254C34.9855 80.7334 38.2869 86.894 50.0631 86.894C61.8393 86.894 67.4628 82.2894 67.4312 81.9971Z" fill="#AA5C41"/>
<path d="M49.992 70.1184C71.1118 70.1184 70.1798 51.8183 70.1798 48.7933V38.9522C70.1798 27.7762 61.2154 23.4164 49.9525 28.0922C39.6375 32.3809 29.7253 30.6749 29.7253 41.8429V48.9513C29.7411 52.616 28.8881 70.1184 49.992 70.1184Z" fill="#C16B49"/>
<path d="M41.4462 47.3557C42.9773 47.3557 44.2185 46.1216 44.2185 44.5992C44.2185 43.0769 42.9773 41.8428 41.4462 41.8428C39.9151 41.8428 38.674 43.0769 38.674 44.5992C38.674 46.1216 39.9151 47.3557 41.4462 47.3557Z" fill="#592D2D"/>
<path d="M58.4905 47.3243C60.0042 47.3243 61.2312 46.1043 61.2312 44.5994C61.2312 43.0945 60.0042 41.8745 58.4905 41.8745C56.9769 41.8745 55.7499 43.0945 55.7499 44.5994C55.7499 46.1043 56.9769 47.3243 58.4905 47.3243Z" fill="#592D2D"/>
<path d="M46.6433 34.8847C46.6433 34.6186 46.5376 34.3635 46.3495 34.1754C46.1614 33.9873 45.9062 33.8816 45.6402 33.8816C43.0101 33.8816 38.4529 34.7425 36.5415 36.6539C36.4357 36.7435 36.3497 36.8542 36.2889 36.9788C36.228 37.1033 36.1937 37.2392 36.188 37.3777C36.1823 37.5163 36.2054 37.6545 36.2558 37.7837C36.3062 37.9128 36.3829 38.0301 36.4809 38.1282C36.579 38.2262 36.6963 38.3029 36.8254 38.3533C36.9546 38.4037 37.0928 38.4268 37.2314 38.4211C37.3699 38.4155 37.5058 38.3811 37.6304 38.3203C37.755 38.2594 37.8656 38.1734 37.9553 38.0676C39.2506 36.7881 43.0417 35.9035 45.6481 35.9035C45.7805 35.9025 45.9114 35.8753 46.0332 35.8234C46.155 35.7716 46.2654 35.6961 46.3579 35.6014C46.4504 35.5067 46.5233 35.3946 46.5722 35.2715C46.6212 35.1485 46.6454 35.017 46.6433 34.8847Z" fill="#592D2D"/>
<path d="M54.2966 33.8896C54.0306 33.8896 53.7755 33.9953 53.5874 34.1834C53.3993 34.3716 53.2936 34.6267 53.2936 34.8927C53.2936 35.1587 53.3993 35.4139 53.5874 35.602C53.7755 35.7901 54.0306 35.8958 54.2966 35.8958C56.8951 35.8958 60.6942 36.7883 61.9816 38.0757C62.1712 38.2341 62.4127 38.3169 62.6596 38.3082C62.9066 38.2996 63.1416 38.2001 63.3197 38.0288C63.4979 37.8575 63.6065 37.6266 63.6248 37.3801C63.6431 37.1337 63.5699 36.8892 63.4191 36.6935C61.484 34.7427 56.9267 33.8896 54.2966 33.8896Z" fill="#592D2D"/>
<path d="M55.7973 57.039C55.5772 56.8908 55.3073 56.8358 55.0468 56.8861C54.7862 56.9365 54.5562 57.088 54.4072 57.3075C54.4072 57.3075 53.2383 58.8871 49.9763 58.8871C46.7144 58.8871 45.0399 57.2759 44.961 57.2285C44.7808 57.0327 44.5302 56.9164 44.2644 56.9053C43.9985 56.8942 43.7391 56.9891 43.5432 57.1693C43.3474 57.3494 43.2311 57.6 43.22 57.8659C43.2089 58.1318 43.3038 58.3912 43.484 58.587C43.5709 58.6818 45.6955 60.9565 49.9684 60.9565C54.2413 60.9565 55.9947 58.587 56.0579 58.4843C56.1405 58.374 56.1995 58.2479 56.2313 58.1138C56.263 57.9797 56.2667 57.8405 56.2423 57.7049C56.2178 57.5693 56.1657 57.4402 56.0891 57.3256C56.0126 57.211 55.9132 57.1134 55.7973 57.039Z" fill="#592D2D"/>
</g>
</svg>
