<svg width="100" height="100" viewBox="0 0 100 100" fill="none" xmlns="http://www.w3.org/2000/svg">
<circle cx="50" cy="50" r="50" fill="#E0E3E4"/>
<mask id="mask0_28:1114" style="mask-type:alpha" maskUnits="userSpaceOnUse" x="0" y="0" width="100" height="100">
<circle cx="50" cy="50" r="50" fill="#8FB6E9"/>
</mask>
<g mask="url(#mask0_28:1114)">
<path d="M78.3623 64.8491C82.1467 62.4033 81.481 56.4118 77.6387 51.1874C73.7963 45.9629 77.6387 17.9014 50.4237 17.9014C35.9515 17.9014 27.9557 28.0898 27.9557 38.8064V54.4653C27.9557 60.6015 26.7979 66.0431 26.3637 69.596C25.9296 73.1489 29.0917 78.9378 35.5246 78.9378C40.4234 85.8265 47.5582 86.7528 56.8132 83.6485C64.4762 86.3693 70.8874 83.0696 74.4548 77.8596C80.4897 76.4848 82.5303 69.444 78.3623 64.8491Z" fill="#592D2D"/>
<path d="M50.402 77.0347C42.5943 77.0347 32.3118 82.8235 26.863 89.7991C26.5323 90.2116 26.3563 90.7269 26.3656 91.2555C26.3748 91.7841 26.5687 92.2929 26.9137 92.6936C34.801 101.883 66.7122 101.84 73.9917 92.6936C74.3039 92.295 74.4735 91.8033 74.4735 91.297C74.4735 90.7907 74.3039 90.299 73.9917 89.9004C68.514 82.838 58.2098 77.0347 50.402 77.0347Z" fill="#C7B299"/>
<path d="M33.0788 59.5797C35.1332 57.5253 34.5101 53.5714 31.6871 50.7483C28.8641 47.9253 24.9101 47.3022 22.8557 49.3566C20.8013 51.411 21.4244 55.3649 24.2474 58.188C27.0705 61.011 31.0244 61.6341 33.0788 59.5797Z" fill="#AA5C41"/>
<path d="M30.966 54.487C29.6345 53.1194 27.7459 51.6577 25.7922 51.6577C25.5484 51.6577 25.3147 51.7545 25.1423 51.9269C24.97 52.0992 24.8732 52.333 24.8732 52.5767C24.8732 52.8204 24.97 53.0542 25.1423 53.2265C25.3147 53.3989 25.5484 53.4957 25.7922 53.4957C27.811 53.4957 30.2641 56.3105 31.2047 57.613C31.5607 58.1089 31.9525 58.5781 32.377 59.0168C32.1122 57.8865 31.9595 56.7328 31.9211 55.5724C31.6249 55.1917 31.306 54.8292 30.966 54.487Z" fill="#964C39"/>
<path d="M63.6079 81.1085C60.8722 79.6453 57.9816 78.4924 54.9897 77.6714V65.7029C54.9426 64.5167 54.4383 63.3949 53.5824 62.5723C52.7265 61.7497 51.5855 61.2903 50.3984 61.2903C49.2113 61.2903 48.0703 61.7497 47.2144 62.5723C46.3586 63.3949 45.8542 64.5167 45.8071 65.7029V77.6714C42.8156 78.3846 39.9474 79.5407 37.2975 81.1013C37.2975 81.3835 46.4439 87.3388 50.4744 87.3388C54.5049 87.3388 63.6441 81.3763 63.6079 81.1085Z" fill="#AA5C41"/>
<path d="M50.4383 71.9768C69.7876 71.9768 68.9337 55.2108 68.9337 52.4394V40.5577C68.9337 35.6419 66.9809 30.9273 63.5049 27.4513C60.0289 23.9753 55.3143 22.0225 50.3985 22.0225C45.4826 22.0225 40.7681 23.9753 37.2921 27.4513C33.8161 30.9273 31.8633 35.6419 31.8633 40.5577V52.5841C31.8705 55.9416 31.089 71.9768 50.4383 71.9768Z" fill="#C16B49"/>
<path d="M38.5566 26.3096C42.2326 22.4817 50.9955 24.4354 53.4485 28.8784C56.9366 35.4886 61.3168 41.5878 66.4662 47.0048C70.4461 51.1004 69.0278 58.0254 67.9135 60.7534C66.7991 63.4814 69.0423 66.4627 71.8861 63.6478C81.4377 54.0962 80.8805 17.9664 51.1402 17.9664C44.1067 17.9447 39.6276 22.7856 38.5566 26.3096Z" fill="#663434"/>
<path d="M42.5943 51.1294C43.997 51.1294 45.1342 49.9987 45.1342 48.604C45.1342 47.2093 43.997 46.0786 42.5943 46.0786C41.1916 46.0786 40.0544 47.2093 40.0544 48.604C40.0544 49.9987 41.1916 51.1294 42.5943 51.1294Z" fill="#6B1818"/>
<path d="M58.2098 51.1006C59.5965 51.1006 60.7207 49.9829 60.7207 48.6041C60.7207 47.2254 59.5965 46.1077 58.2098 46.1077C56.823 46.1077 55.6989 47.2254 55.6989 48.6041C55.6989 49.9829 56.823 51.1006 58.2098 51.1006Z" fill="#6B1818"/>
<path d="M38.7519 43.8138C38.5698 43.8143 38.3915 43.7608 38.2399 43.6598C38.0882 43.5589 37.97 43.4151 37.9002 43.2469C37.8304 43.0786 37.8122 42.8934 37.8479 42.7147C37.8836 42.5361 37.9716 42.3721 38.1007 42.2435C39.4683 40.8759 42.095 40.9989 44.6132 41.1219C45.2572 41.1219 45.8722 41.1798 46.4222 41.1798C46.6659 41.1798 46.8997 41.2767 47.072 41.449C47.2443 41.6213 47.3412 41.8551 47.3412 42.0988C47.3412 42.3425 47.2443 42.5763 47.072 42.7486C46.8997 42.921 46.6659 43.0178 46.4222 43.0178C45.8288 43.0178 45.1993 43.0178 44.5263 42.9527C42.5871 42.8586 40.1847 42.7428 39.3815 43.5388C39.2151 43.7084 38.9894 43.8069 38.7519 43.8138Z" fill="#6B1818"/>
<path d="M62.0522 43.8139C61.9304 43.8124 61.8101 43.7867 61.6983 43.7382C61.5865 43.6898 61.4854 43.6196 61.401 43.5317C60.605 42.7357 58.1954 42.8515 56.2561 42.9456C55.5832 42.9456 54.9536 43.0107 54.3603 43.0107C54.1165 43.0107 53.8828 42.9139 53.7104 42.7416C53.5381 42.5692 53.4413 42.3355 53.4413 42.0917C53.4413 41.848 53.5381 41.6143 53.7104 41.4419C53.8828 41.2696 54.1165 41.1728 54.3603 41.1728C54.9102 41.1728 55.518 41.1728 56.1693 41.1149C58.7092 40.9919 61.3359 40.8688 62.6818 42.2365C62.8109 42.365 62.8989 42.529 62.9346 42.7076C62.9703 42.8863 62.952 43.0715 62.8823 43.2398C62.8125 43.4081 62.6942 43.5518 62.5426 43.6527C62.3909 43.7537 62.2127 43.8073 62.0305 43.8067L62.0522 43.8139Z" fill="#6B1818"/>
<path d="M50.4021 63.5466C46.4802 63.5466 44.5409 61.4771 44.4613 61.3758C44.2963 61.1963 44.2093 60.9587 44.2194 60.7151C44.2296 60.4715 44.3361 60.2419 44.5156 60.0769C44.695 59.9119 44.9327 59.8249 45.1762 59.835C45.4198 59.8452 45.6494 59.9517 45.8144 60.1312C45.8868 60.2035 47.3485 61.7014 50.4094 61.7014C53.4702 61.7014 54.4326 60.2904 54.476 60.2542C54.6182 60.0592 54.8309 59.9275 55.0687 59.8869C55.3066 59.8464 55.5509 59.9003 55.7496 60.0371C55.947 60.1734 56.0828 60.3819 56.1275 60.6176C56.1722 60.8533 56.1222 61.0971 55.9884 61.2962C55.9233 61.3685 54.4037 63.5466 50.4021 63.5466Z" fill="#6B1818"/>
</g>
</svg>
