<svg width="642" height="108" viewBox="0 0 642 108" fill="none" xmlns="http://www.w3.org/2000/svg">
<path d="M26.792 105.432C24.008 105.432 21.656 104.472 19.736 102.552C17.816 100.632 16.136 97.224 14.696 92.328C10.472 78.504 6.008 62.376 1.304 43.944C0.632 41.256 0.632 38.808 1.304 36.6C1.976 34.296 3.176 32.52 4.904 31.272C6.728 29.928 8.792 29.256 11.096 29.256C16.088 29.256 19.208 32.088 20.456 37.752C22.28 46.2 24.68 55.992 27.656 67.128L28.664 70.872C30.008 67.032 31.688 60.984 33.704 52.728L37.448 39.048C38.312 36.168 39.608 34.008 41.336 32.568C43.16 31.128 45.176 30.408 47.384 30.408C49.592 30.408 51.56 31.08 53.288 32.424C55.016 33.672 56.264 35.688 57.032 38.472L66.104 69.288L72.152 39.048C73.496 32.52 76.856 29.256 82.232 29.256C85.688 29.256 88.184 30.6 89.72 33.288C91.256 35.976 91.592 39.24 90.728 43.08C85.736 65.256 81.128 83.256 76.904 97.08C76.04 99.768 74.648 101.832 72.728 103.272C70.808 104.616 68.696 105.288 66.392 105.288C64.088 105.288 62.024 104.616 60.2 103.272C58.472 101.832 57.224 99.96 56.456 97.656L46.232 66.552L38.168 94.632C36.056 101.832 32.264 105.432 26.792 105.432ZM136.585 106.296C128.905 106.296 122.185 104.664 116.425 101.4C110.665 98.136 106.249 93.768 103.177 88.296C100.201 82.824 98.7131 76.776 98.7131 70.152C98.7131 61.8 100.249 54.6 103.321 48.552C106.393 42.408 110.809 37.56 116.569 34.008C122.329 30.456 128.857 28.68 136.153 28.68C143.641 28.68 150.025 30.216 155.305 33.288C160.681 36.36 164.713 40.536 167.401 45.816C170.089 51 171.433 56.808 171.433 63.24C171.433 66.504 170.377 69.048 168.265 70.872C166.153 72.696 163.321 73.752 159.769 74.04C152.569 74.712 146.185 75.048 140.617 75.048C135.337 75.048 129.673 74.904 123.625 74.616L118.585 74.472C119.161 79.176 120.985 82.872 124.057 85.56C127.225 88.152 131.977 89.352 138.313 89.16C141.193 89.064 143.497 88.728 145.225 88.152C146.953 87.48 148.489 86.52 149.833 85.272C150.601 84.504 151.417 83.688 152.281 82.824C153.145 81.96 154.105 81.288 155.161 80.808C156.217 80.328 157.513 80.088 159.049 80.088C161.545 80.088 163.609 80.952 165.241 82.68C166.969 84.312 167.833 86.232 167.833 88.44C167.833 91.512 166.297 94.44 163.225 97.224C160.153 100.008 156.169 102.216 151.273 103.848C146.473 105.48 141.577 106.296 136.585 106.296ZM118.873 59.784C124.537 60.552 130.825 60.84 137.737 60.648C144.361 60.552 149.209 60.12 152.281 59.352C152.089 55.224 150.841 51.912 148.537 49.416C146.329 46.92 142.297 45.72 136.441 45.816C131.545 45.912 127.561 47.016 124.489 49.128C121.417 51.24 119.545 54.792 118.873 59.784ZM188.013 101.976C185.997 100.056 184.989 97.752 184.989 95.064C184.893 85.56 184.845 78.072 184.845 72.6C184.653 71.448 184.653 70.344 184.845 69.288C184.749 58.632 184.701 48.984 184.701 40.344C184.701 36.6 185.661 33.768 187.581 31.848C189.597 29.832 191.997 28.824 194.781 28.824C196.797 28.824 198.621 29.4 200.253 30.552C201.981 31.608 203.229 33.528 203.997 36.312C207.837 34.2 213.597 31.8 221.277 29.112C223.773 28.248 226.173 28.392 228.477 29.544C230.877 30.6 232.509 32.376 233.373 34.872C234.237 37.368 234.093 39.816 232.941 42.216C231.885 44.52 230.109 46.104 227.613 46.968C218.781 50.04 211.245 53.064 205.005 56.04C204.621 59.112 204.573 63.48 204.861 69.144C204.957 75.192 205.053 83.736 205.149 94.776C205.149 97.56 204.141 99.96 202.125 101.976C200.205 103.992 197.853 105 195.069 105C192.381 105 190.029 103.992 188.013 101.976ZM297.793 106.44C292.321 104.328 289.585 100.824 289.585 95.928C284.113 103.608 276.337 106.632 266.257 105C262.033 103.848 258.337 102.12 255.169 99.816C252.097 97.512 249.697 94.776 247.969 91.608C246.241 88.44 244.945 85.32 244.081 82.248C243.217 79.08 242.641 75.72 242.353 72.168C242.065 70.248 242.065 67.08 242.353 62.664C242.641 58.248 242.881 54.984 243.073 52.872C243.265 50.76 243.601 47.88 244.081 44.232C244.561 40.488 244.849 38.184 244.945 37.32C245.329 34.632 246.529 32.472 248.545 30.84C250.657 29.208 253.009 28.584 255.601 28.968C258.289 29.256 260.449 30.456 262.081 32.568C263.713 34.584 264.385 36.936 264.097 39.624L263.089 47.112C262.609 50.664 262.273 53.352 262.081 55.176C261.889 56.904 261.649 59.592 261.361 63.24C261.169 66.792 261.217 69.336 261.505 70.872C261.889 75.576 262.801 79.176 264.241 81.672C265.777 84.072 268.129 85.656 271.297 86.424C273.409 87 275.761 86.856 278.353 85.992C280.945 85.032 283.537 82.488 286.129 78.36C286.705 77.784 287.281 77.304 287.857 76.92C287.953 62.808 287.905 50.184 287.713 39.048C287.713 36.168 288.673 33.768 290.593 31.848C292.513 29.832 294.865 28.824 297.649 28.824C300.529 28.728 302.929 29.64 304.849 31.56C306.865 33.48 307.921 35.88 308.017 38.76C308.209 52.968 308.209 72.216 308.017 96.504C308.017 99.192 307.009 101.544 304.993 103.56C302.977 105.48 300.577 106.44 297.793 106.44ZM333.72 75.624C331.032 75.624 328.776 74.712 326.952 72.888C325.128 70.968 324.216 68.712 324.216 66.12C324.216 63.528 325.128 61.32 326.952 59.496C328.776 57.576 331.032 56.616 333.72 56.616H359.208C361.896 56.616 364.152 57.576 365.976 59.496C367.8 61.32 368.712 63.528 368.712 66.12C368.712 68.712 367.8 70.968 365.976 72.888C364.152 74.712 361.896 75.624 359.208 75.624H333.72ZM432.954 102.12C424.986 93.96 418.266 85.848 412.794 77.784L407.034 83.256C406.842 83.352 406.65 83.496 406.458 83.688V95.352C406.362 98.136 405.306 100.488 403.29 102.408C401.37 104.328 399.018 105.24 396.234 105.144C393.45 105.144 391.098 104.184 389.178 102.264C387.258 100.248 386.298 97.848 386.298 95.064C386.586 77.784 386.106 50.136 384.858 12.12C384.762 9.336 385.626 6.936 387.45 4.91999C389.37 2.904 391.722 1.848 394.506 1.752C397.29 1.56 399.69 2.42399 401.706 4.34399C403.722 6.168 404.826 8.472 405.018 11.256C405.594 28.056 406.026 43.032 406.314 56.184C413.802 48.888 421.674 40.824 429.93 31.992C431.85 29.976 434.154 28.92 436.842 28.824C439.626 28.728 442.026 29.64 444.042 31.56C446.154 33.48 447.258 35.832 447.354 38.616C447.45 41.304 446.538 43.704 444.618 45.816L427.482 63.384C432.858 71.928 439.482 80.232 447.354 88.296C449.274 90.216 450.186 92.568 450.09 95.352C450.09 98.136 449.082 100.488 447.066 102.408C445.146 104.328 442.794 105.24 440.01 105.144C437.226 105.144 434.874 104.136 432.954 102.12ZM460.653 95.208C460.365 74.856 460.509 55.8 461.085 38.04C461.181 35.256 462.237 32.952 464.253 31.128C466.365 29.208 468.813 28.296 471.597 28.392C474.381 28.488 476.685 29.592 478.509 31.704C480.429 33.72 481.341 36.12 481.245 38.904C480.669 56.856 480.525 75.528 480.813 94.92C480.813 97.704 479.853 100.104 477.933 102.12C476.013 104.04 473.661 105 470.877 105C468.093 105.096 465.693 104.184 463.677 102.264C461.757 100.344 460.749 97.992 460.653 95.208ZM477.789 3.768C479.805 5.688 480.813 8.136 480.813 11.112C480.813 13.992 479.805 16.44 477.789 18.456C475.773 20.472 473.325 21.48 470.445 21.48C467.565 21.48 465.117 20.472 463.101 18.456C461.085 16.44 460.077 13.992 460.077 11.112C460.077 8.136 461.085 5.63999 463.101 3.62399C465.117 1.608 467.565 0.599997 470.445 0.599997C473.325 0.599997 475.773 1.656 477.789 3.768ZM528.342 106.44C522.87 106.44 517.59 105 512.502 102.12C507.414 99.24 503.238 95.064 499.974 89.592C496.806 84.12 495.222 77.688 495.222 70.296C495.222 62.712 496.758 55.704 499.83 49.272C502.902 42.84 507.174 37.752 512.646 34.008C518.214 30.168 524.406 28.248 531.222 28.248C536.118 28.248 540.822 29.112 545.334 30.84C545.238 19.608 545.142 13.272 545.046 11.832C545.046 8.664 546.054 6.216 548.07 4.488C550.086 2.664 552.438 1.752 555.126 1.752C557.718 1.752 560.022 2.616 562.038 4.34399C564.054 6.07199 565.11 8.47199 565.206 11.544C565.686 58.68 565.926 86.568 565.926 95.208C565.926 98.664 565.11 101.352 563.478 103.272C561.942 105.096 559.734 106.008 556.854 106.008C554.262 106.008 552.102 105.24 550.374 103.704C548.742 102.072 547.782 99.624 547.494 96.36C545.382 99.432 542.79 101.88 539.718 103.704C536.742 105.528 532.95 106.44 528.342 106.44ZM531.942 87.288C535.014 87.288 537.558 86.28 539.574 84.264C541.302 82.536 542.838 79.752 544.182 75.912C544.854 74.184 545.43 73.08 545.91 72.6C545.718 64.344 545.622 58.296 545.622 54.456C545.43 54.264 544.854 53.784 543.894 53.016C543.03 52.152 541.878 51.192 540.438 50.136C537.942 48.504 534.822 47.688 531.078 47.688C526.182 47.688 522.294 49.752 519.414 53.88C516.63 58.008 515.238 62.952 515.238 68.712C515.238 74.088 516.774 78.552 519.846 82.104C522.918 85.56 526.95 87.288 531.942 87.288ZM610.124 106.008C605.9 106.008 601.772 105.48 597.74 104.424C593.804 103.368 590.492 101.88 587.804 99.96C585.788 98.328 583.964 96.168 582.332 93.48L581.324 91.752L580.028 89.448C579.164 87.816 578.732 86.328 578.732 84.984C578.732 82.488 579.74 80.328 581.756 78.504C583.868 76.584 586.22 75.624 588.812 75.624C592.076 75.624 594.668 77.064 596.588 79.944L598.316 82.824L599.18 84.552C599.756 85.704 600.86 86.616 602.492 87.288C604.988 88.056 607.148 88.44 608.972 88.44C610.316 88.44 611.996 88.296 614.012 88.008C619.1 86.952 621.74 85.368 621.932 83.256V82.68C621.932 81.528 621.404 80.424 620.348 79.368C619.1 78.216 616.22 76.728 611.708 74.904L605.372 72.456C601.82 71.208 599.276 70.2 597.74 69.432C590.732 66.36 586.172 62.616 584.06 58.2C582.62 55.32 581.9 52.488 581.9 49.704C581.9 47.4 582.38 45.24 583.34 43.224C585.26 38.52 589.724 34.728 596.732 31.848C601.34 30.024 606.092 29.112 610.988 29.112C611.948 29.112 613.388 29.208 615.308 29.4C623.756 30.264 631.148 33.576 637.484 39.336C639.5 41.064 640.508 43.272 640.508 45.96C640.508 48.456 639.596 50.712 637.772 52.728C636.044 54.744 633.884 55.752 631.292 55.752C629.276 55.752 627.26 55.08 625.244 53.736L621.788 51.144C620.156 49.992 618.956 49.272 618.188 48.984C615.308 48.024 612.572 47.544 609.98 47.544C607.58 47.544 605.516 47.784 603.788 48.264C602.54 48.744 601.916 49.416 601.916 50.28C601.916 50.856 602.204 51.336 602.78 51.72C603.452 52.104 604.508 52.632 605.948 53.304C607.676 54.072 610.172 54.984 613.436 56.04C615.644 56.712 617.9 57.576 620.204 58.632C621.74 59.304 623.42 60.072 625.244 60.936C627.164 61.704 629.132 62.808 631.148 64.248C634.316 66.36 636.812 69 638.636 72.168C640.46 75.24 641.372 78.696 641.372 82.536C641.372 83.784 641.324 84.744 641.228 85.416C640.364 91.368 637.628 95.976 633.02 99.24C628.508 102.504 623.084 104.616 616.748 105.576C614.636 105.864 612.428 106.008 610.124 106.008Z" fill="#186594"/>
</svg>
