<svg width="683" height="71" viewBox="0 0 683 71" fill="none" xmlns="http://www.w3.org/2000/svg">
<path d="M72.2812 70H60.0938L48.4688 29.125C47.9688 27.3438 47.3438 24.7812 46.5938 21.4375C45.8438 18.0625 45.3906 15.7188 45.2344 14.4062C44.9219 16.4062 44.4062 19 43.6875 22.1875C43 25.375 42.4219 27.75 41.9531 29.3125L30.6094 70H18.4219L9.5625 35.6875L0.5625 1.46875H12L21.7969 41.4062C23.3281 47.8125 24.4219 53.4688 25.0781 58.375C25.4219 55.7188 25.9375 52.75 26.625 49.4688C27.3125 46.1875 27.9375 43.5312 28.5 41.5L39.6562 1.46875H50.7656L62.2031 41.6875C63.2969 45.4062 64.4531 50.9688 65.6719 58.375C66.1406 53.9062 67.2656 48.2188 69.0469 41.3125L78.7969 1.46875H90.1406L72.2812 70ZM608.074 35.0781C608.074 46.3906 604.933 55.0469 598.652 61.0469C592.371 67.0156 583.324 70 571.511 70H552.339V1.46875H573.527C584.433 1.46875 592.917 4.40625 598.98 10.2812C605.042 16.1562 608.074 24.4219 608.074 35.0781ZM596.261 35.4531C596.261 19.0469 588.589 10.8438 573.246 10.8438H563.542V60.5781H571.511C588.011 60.5781 596.261 52.2031 596.261 35.4531Z" fill="#F45D4A"/>
<path d="M159.296 70H120.531V1.46875H159.296V10.9375H131.734V29.5938H157.562V38.9688H131.734V60.4844H159.296V70ZM330.561 1.46875V45.8125C330.561 50.875 329.467 55.3125 327.279 59.125C325.123 62.9062 321.982 65.8281 317.857 67.8906C313.764 69.9219 308.857 70.9375 303.139 70.9375C294.639 70.9375 288.029 68.6875 283.311 64.1875C278.592 59.6875 276.232 53.5 276.232 45.625V1.46875H287.482V44.8281C287.482 50.4844 288.795 54.6562 291.42 57.3438C294.045 60.0312 298.076 61.375 303.514 61.375C314.076 61.375 319.357 55.8281 319.357 44.7344V1.46875H330.561ZM363.06 48.9531V39.5781H387.154V48.9531H363.06ZM502.356 70V1.46875H513.559V70H502.356Z" fill="black"/>
<path d="M205.999 33.3438H213.78C218.999 33.3438 222.78 32.375 225.124 30.4375C227.467 28.5 228.639 25.625 228.639 21.8125C228.639 17.9375 227.374 15.1562 224.842 13.4688C222.311 11.7812 218.499 10.9375 213.405 10.9375H205.999V33.3438ZM205.999 42.625V70H194.796V1.46875H214.155C222.999 1.46875 229.546 3.125 233.796 6.4375C238.046 9.75 240.171 14.75 240.171 21.4375C240.171 29.9688 235.733 36.0469 226.858 39.6719L246.217 70H233.467L217.061 42.625H205.999Z" fill="#46A5DF"/>
<path d="M472.622 70H459.638L438.122 38.9688L431.513 44.3594V70H420.309V1.46875H431.513V34.1875C434.575 30.4375 437.622 26.8281 440.653 23.3594L459.169 1.46875H471.919C459.95 15.5312 451.372 25.5469 446.184 31.5156L472.622 70Z" fill="#B9DA54"/>
<path d="M682.995 51.3906C682.995 57.4844 680.792 62.2656 676.386 65.7344C671.979 69.2031 665.901 70.9375 658.151 70.9375C650.401 70.9375 644.057 69.7344 639.12 67.3281V56.7344C642.245 58.2031 645.557 59.3594 649.057 60.2031C652.589 61.0469 655.87 61.4688 658.901 61.4688C663.339 61.4688 666.604 60.625 668.698 58.9375C670.823 57.25 671.886 54.9844 671.886 52.1406C671.886 49.5781 670.917 47.4062 668.979 45.625C667.042 43.8438 663.042 41.7344 656.979 39.2969C650.729 36.7656 646.323 33.875 643.761 30.625C641.198 27.375 639.917 23.4688 639.917 18.9062C639.917 13.1875 641.948 8.6875 646.011 5.40625C650.073 2.125 655.526 0.484375 662.37 0.484375C668.932 0.484375 675.464 1.92188 681.964 4.79688L678.401 13.9375C672.307 11.375 666.87 10.0938 662.089 10.0938C658.464 10.0938 655.714 10.8906 653.839 12.4844C651.964 14.0469 651.026 16.125 651.026 18.7188C651.026 20.5 651.401 22.0312 652.151 23.3125C652.901 24.5625 654.136 25.75 655.854 26.875C657.573 28 660.667 29.4844 665.136 31.3281C670.167 33.4219 673.854 35.375 676.198 37.1875C678.542 39 680.261 41.0469 681.354 43.3281C682.448 45.6094 682.995 48.2969 682.995 51.3906Z" fill="#FFC000"/>
</svg>
