<svg width="643" height="108" viewBox="0 0 643 108" fill="none" xmlns="http://www.w3.org/2000/svg">
<path d="M26.792 105.432C24.008 105.432 21.656 104.472 19.736 102.552C17.816 100.632 16.136 97.224 14.696 92.328C10.472 78.504 6.008 62.376 1.304 43.944C0.632 41.256 0.632 38.808 1.304 36.6C1.976 34.296 3.176 32.52 4.904 31.272C6.728 29.928 8.792 29.256 11.096 29.256C16.088 29.256 19.208 32.088 20.456 37.752C22.28 46.2 24.68 55.992 27.656 67.128L28.664 70.872C30.008 67.032 31.688 60.984 33.704 52.728L37.448 39.048C38.312 36.168 39.608 34.008 41.336 32.568C43.16 31.128 45.176 30.408 47.384 30.408C49.592 30.408 51.56 31.08 53.288 32.424C55.016 33.672 56.264 35.688 57.032 38.472L66.104 69.288L72.152 39.048C73.496 32.52 76.856 29.256 82.232 29.256C85.688 29.256 88.184 30.6 89.72 33.288C91.256 35.976 91.592 39.24 90.728 43.08C85.736 65.256 81.128 83.256 76.904 97.08C76.04 99.768 74.648 101.832 72.728 103.272C70.808 104.616 68.696 105.288 66.392 105.288C64.088 105.288 62.024 104.616 60.2 103.272C58.472 101.832 57.224 99.96 56.456 97.656L46.232 66.552L38.168 94.632C36.056 101.832 32.264 105.432 26.792 105.432ZM529.748 106.44C524.276 106.44 518.996 105 513.908 102.12C508.82 99.24 504.644 95.064 501.38 89.592C498.212 84.12 496.628 77.688 496.628 70.296C496.628 62.712 498.164 55.704 501.236 49.272C504.308 42.84 508.58 37.752 514.052 34.008C519.62 30.168 525.812 28.248 532.628 28.248C537.524 28.248 542.228 29.112 546.74 30.84C546.644 19.608 546.548 13.272 546.452 11.832C546.452 8.664 547.46 6.216 549.476 4.488C551.492 2.664 553.844 1.752 556.532 1.752C559.124 1.752 561.428 2.616 563.444 4.34399C565.46 6.07199 566.516 8.47199 566.612 11.544C567.092 58.68 567.332 86.568 567.332 95.208C567.332 98.664 566.516 101.352 564.884 103.272C563.348 105.096 561.14 106.008 558.26 106.008C555.668 106.008 553.508 105.24 551.78 103.704C550.148 102.072 549.188 99.624 548.9 96.36C546.788 99.432 544.196 101.88 541.124 103.704C538.148 105.528 534.356 106.44 529.748 106.44ZM533.348 87.288C536.42 87.288 538.964 86.28 540.98 84.264C542.708 82.536 544.244 79.752 545.588 75.912C546.26 74.184 546.836 73.08 547.316 72.6C547.124 64.344 547.028 58.296 547.028 54.456C546.836 54.264 546.26 53.784 545.3 53.016C544.436 52.152 543.284 51.192 541.844 50.136C539.348 48.504 536.228 47.688 532.484 47.688C527.588 47.688 523.7 49.752 520.82 53.88C518.036 58.008 516.644 62.952 516.644 68.712C516.644 74.088 518.18 78.552 521.252 82.104C524.324 85.56 528.356 87.288 533.348 87.288Z" fill="#E21C21"/>
<path d="M137.991 106.296C130.311 106.296 123.591 104.664 117.831 101.4C112.071 98.136 107.655 93.768 104.583 88.296C101.607 82.824 100.119 76.776 100.119 70.152C100.119 61.8 101.655 54.6 104.727 48.552C107.799 42.408 112.215 37.56 117.975 34.008C123.735 30.456 130.263 28.68 137.559 28.68C145.047 28.68 151.431 30.216 156.711 33.288C162.087 36.36 166.119 40.536 168.807 45.816C171.495 51 172.839 56.808 172.839 63.24C172.839 66.504 171.783 69.048 169.671 70.872C167.559 72.696 164.727 73.752 161.175 74.04C153.975 74.712 147.591 75.048 142.023 75.048C136.743 75.048 131.079 74.904 125.031 74.616L119.991 74.472C120.567 79.176 122.391 82.872 125.463 85.56C128.631 88.152 133.383 89.352 139.719 89.16C142.599 89.064 144.903 88.728 146.631 88.152C148.359 87.48 149.895 86.52 151.239 85.272C152.007 84.504 152.823 83.688 153.687 82.824C154.551 81.96 155.511 81.288 156.567 80.808C157.623 80.328 158.919 80.088 160.455 80.088C162.951 80.088 165.015 80.952 166.647 82.68C168.375 84.312 169.239 86.232 169.239 88.44C169.239 91.512 167.703 94.44 164.631 97.224C161.559 100.008 157.575 102.216 152.679 103.848C147.879 105.48 142.983 106.296 137.991 106.296ZM120.279 59.784C125.943 60.552 132.231 60.84 139.143 60.648C145.767 60.552 150.615 60.12 153.687 59.352C153.495 55.224 152.247 51.912 149.943 49.416C147.735 46.92 143.703 45.72 137.847 45.816C132.951 45.912 128.967 47.016 125.895 49.128C122.823 51.24 120.951 54.792 120.279 59.784ZM299.199 106.44C293.727 104.328 290.991 100.824 290.991 95.928C285.519 103.608 277.743 106.632 267.663 105C263.439 103.848 259.743 102.12 256.575 99.816C253.503 97.512 251.103 94.776 249.375 91.608C247.647 88.44 246.351 85.32 245.487 82.248C244.623 79.08 244.047 75.72 243.759 72.168C243.471 70.248 243.471 67.08 243.759 62.664C244.047 58.248 244.287 54.984 244.479 52.872C244.671 50.76 245.007 47.88 245.487 44.232C245.967 40.488 246.255 38.184 246.351 37.32C246.735 34.632 247.935 32.472 249.951 30.84C252.063 29.208 254.415 28.584 257.007 28.968C259.695 29.256 261.855 30.456 263.487 32.568C265.119 34.584 265.791 36.936 265.503 39.624L264.495 47.112C264.015 50.664 263.679 53.352 263.487 55.176C263.295 56.904 263.055 59.592 262.767 63.24C262.575 66.792 262.623 69.336 262.911 70.872C263.295 75.576 264.207 79.176 265.647 81.672C267.183 84.072 269.535 85.656 272.703 86.424C274.815 87 277.167 86.856 279.759 85.992C282.351 85.032 284.943 82.488 287.535 78.36C288.111 77.784 288.687 77.304 289.263 76.92C289.359 62.808 289.311 50.184 289.119 39.048C289.119 36.168 290.079 33.768 291.999 31.848C293.919 29.832 296.271 28.824 299.055 28.824C301.935 28.728 304.335 29.64 306.255 31.56C308.271 33.48 309.327 35.88 309.423 38.76C309.615 52.968 309.615 72.216 309.423 96.504C309.423 99.192 308.415 101.544 306.399 103.56C304.383 105.48 301.983 106.44 299.199 106.44ZM462.059 95.208C461.771 74.856 461.915 55.8 462.491 38.04C462.587 35.256 463.643 32.952 465.659 31.128C467.771 29.208 470.219 28.296 473.003 28.392C475.787 28.488 478.091 29.592 479.915 31.704C481.835 33.72 482.747 36.12 482.651 38.904C482.075 56.856 481.931 75.528 482.219 94.92C482.219 97.704 481.259 100.104 479.339 102.12C477.419 104.04 475.067 105 472.283 105C469.499 105.096 467.099 104.184 465.083 102.264C463.163 100.344 462.155 97.992 462.059 95.208ZM479.195 3.768C481.211 5.688 482.219 8.136 482.219 11.112C482.219 13.992 481.211 16.44 479.195 18.456C477.179 20.472 474.731 21.48 471.851 21.48C468.971 21.48 466.523 20.472 464.507 18.456C462.491 16.44 461.483 13.992 461.483 11.112C461.483 8.136 462.491 5.63999 464.507 3.62399C466.523 1.608 468.971 0.599997 471.851 0.599997C474.731 0.599997 477.179 1.656 479.195 3.768Z" fill="#0088DB"/>
<path d="M189.42 101.976C187.404 100.056 186.396 97.752 186.396 95.064C186.3 85.56 186.252 78.072 186.252 72.6C186.06 71.448 186.06 70.344 186.252 69.288C186.156 58.632 186.108 48.984 186.108 40.344C186.108 36.6 187.068 33.768 188.988 31.848C191.004 29.832 193.404 28.824 196.188 28.824C198.204 28.824 200.028 29.4 201.66 30.552C203.388 31.608 204.636 33.528 205.404 36.312C209.244 34.2 215.004 31.8 222.684 29.112C225.18 28.248 227.58 28.392 229.884 29.544C232.284 30.6 233.916 32.376 234.78 34.872C235.644 37.368 235.5 39.816 234.348 42.216C233.292 44.52 231.516 46.104 229.02 46.968C220.188 50.04 212.652 53.064 206.412 56.04C206.028 59.112 205.98 63.48 206.268 69.144C206.364 75.192 206.46 83.736 206.556 94.776C206.556 97.56 205.548 99.96 203.532 101.976C201.612 103.992 199.26 105 196.476 105C193.788 105 191.436 103.992 189.42 101.976ZM434.36 102.12C426.392 93.96 419.672 85.848 414.2 77.784L408.44 83.256C408.248 83.352 408.056 83.496 407.864 83.688V95.352C407.768 98.136 406.712 100.488 404.696 102.408C402.776 104.328 400.424 105.24 397.64 105.144C394.856 105.144 392.504 104.184 390.584 102.264C388.664 100.248 387.704 97.848 387.704 95.064C387.992 77.784 387.512 50.136 386.264 12.12C386.168 9.336 387.032 6.936 388.856 4.91999C390.776 2.904 393.128 1.848 395.912 1.752C398.696 1.56 401.096 2.42399 403.112 4.34399C405.128 6.168 406.232 8.472 406.424 11.256C407 28.056 407.432 43.032 407.72 56.184C415.208 48.888 423.08 40.824 431.336 31.992C433.256 29.976 435.56 28.92 438.248 28.824C441.032 28.728 443.432 29.64 445.448 31.56C447.56 33.48 448.664 35.832 448.76 38.616C448.856 41.304 447.944 43.704 446.024 45.816L428.888 63.384C434.264 71.928 440.888 80.232 448.76 88.296C450.68 90.216 451.592 92.568 451.496 95.352C451.496 98.136 450.488 100.488 448.472 102.408C446.552 104.328 444.2 105.24 441.416 105.144C438.632 105.144 436.28 104.136 434.36 102.12ZM611.53 106.008C607.306 106.008 603.178 105.48 599.146 104.424C595.21 103.368 591.898 101.88 589.21 99.96C587.194 98.328 585.37 96.168 583.738 93.48L582.73 91.752L581.434 89.448C580.57 87.816 580.138 86.328 580.138 84.984C580.138 82.488 581.146 80.328 583.162 78.504C585.274 76.584 587.626 75.624 590.218 75.624C593.482 75.624 596.074 77.064 597.994 79.944L599.722 82.824L600.586 84.552C601.162 85.704 602.266 86.616 603.898 87.288C606.394 88.056 608.554 88.44 610.378 88.44C611.722 88.44 613.402 88.296 615.418 88.008C620.506 86.952 623.146 85.368 623.338 83.256V82.68C623.338 81.528 622.81 80.424 621.754 79.368C620.506 78.216 617.626 76.728 613.114 74.904L606.778 72.456C603.226 71.208 600.682 70.2 599.146 69.432C592.138 66.36 587.578 62.616 585.466 58.2C584.026 55.32 583.306 52.488 583.306 49.704C583.306 47.4 583.786 45.24 584.746 43.224C586.666 38.52 591.13 34.728 598.138 31.848C602.746 30.024 607.498 29.112 612.394 29.112C613.354 29.112 614.794 29.208 616.714 29.4C625.162 30.264 632.554 33.576 638.89 39.336C640.906 41.064 641.914 43.272 641.914 45.96C641.914 48.456 641.002 50.712 639.178 52.728C637.45 54.744 635.29 55.752 632.698 55.752C630.682 55.752 628.666 55.08 626.65 53.736L623.194 51.144C621.562 49.992 620.362 49.272 619.594 48.984C616.714 48.024 613.978 47.544 611.386 47.544C608.986 47.544 606.922 47.784 605.194 48.264C603.946 48.744 603.322 49.416 603.322 50.28C603.322 50.856 603.61 51.336 604.186 51.72C604.858 52.104 605.914 52.632 607.354 53.304C609.082 54.072 611.578 54.984 614.842 56.04C617.05 56.712 619.306 57.576 621.61 58.632C623.146 59.304 624.826 60.072 626.65 60.936C628.57 61.704 630.538 62.808 632.554 64.248C635.722 66.36 638.218 69 640.042 72.168C641.866 75.24 642.778 78.696 642.778 82.536C642.778 83.784 642.73 84.744 642.634 85.416C641.77 91.368 639.034 95.976 634.426 99.24C629.914 102.504 624.49 104.616 618.154 105.576C616.042 105.864 613.834 106.008 611.53 106.008Z" fill="#FFC000"/>
<path d="M335.126 75.624C332.438 75.624 330.182 74.712 328.358 72.888C326.534 70.968 325.622 68.712 325.622 66.12C325.622 63.528 326.534 61.32 328.358 59.496C330.182 57.576 332.438 56.616 335.126 56.616H360.614C363.302 56.616 365.558 57.576 367.382 59.496C369.206 61.32 370.118 63.528 370.118 66.12C370.118 68.712 369.206 70.968 367.382 72.888C365.558 74.712 363.302 75.624 360.614 75.624H335.126Z" fill="#809F1E"/>
</svg>
